<?xml version="1.0" encoding="UTF-8"?>
<svg id="Camada_2" data-name="Camada 2" xmlns="http://www.w3.org/2000/svg" viewBox="0 0 62.92 61.75">
  <defs>
    <style>
      .cls-1 {
        fill: #13672f;
        fill-rule: evenodd;
        stroke-width: 0px;
      }

      .cls-2 {
        font-family: Poppins-Light, Poppins;
        font-size: 3.84px;
        font-weight: 300;
      }

      .cls-2, .cls-3, .cls-4 {
        fill: #bc7851;
      }

      .cls-3 {
        stroke-width: .61px;
      }

      .cls-3, .cls-5 {
        stroke: #bc7851;
        stroke-miterlimit: 10;
      }

      .cls-4 {
        font-family: BookAntiqua, 'Book Antiqua';
        font-size: 5.53px;
        letter-spacing: -.02em;
      }

      .cls-5 {
        fill: none;
        stroke-linecap: round;
        stroke-width: 1.84px;
      }
    </style>
  </defs>
  <g id="Background">
    <g>
      <g>
        <g>
          <path class="cls-3" d="M31.27,34.34s2.1.38,2.1-1.14v-12.36s0-1.35,1.9-1.73,2.67.76,2.67.76c0,0,1.9,1.9.76,6.09,0,0-.38,1.52-1.52,2.28l-.38.38h1.9s2.67-1.52,2.67-5.33-3.43-4.57-3.43-4.57c0,0-3.43-.76-4.57,1.14,0,0,0-1.82-2.28-1.29l.19,9.86h-4.95s-4.57.38-5.33-6.47c0,0,0-6.09,3.81-7.23,0,0,3.05-1.52,5.33,1.52l.38.38.67-.02.48-.74s-2.28-1.9-3.81-1.9c0,0-1.9-.38-4.19.38s-5.33,4.19-4.95,7.61.76,5.71,4.95,7.61c0,0,1.14.76,4.19.76s3.23,0,3.23,0l.19,4Z"/>
          <line class="cls-5" x1="36.23" y1="33.38" x2="42.09" y2="33.38"/>
          <line class="cls-5" x1="36.23" y1="31.15" x2="44.17" y2="31.15"/>
        </g>
        <text class="cls-4" transform="translate(17.23 41.71)"><tspan x="0" y="0">CARREIRA</tspan></text>
        <text class="cls-2" transform="translate(18.55 45.71)"><tspan x="0" y="0">EM PORTUGAL</tspan></text>
      </g>
      <path class="cls-1" d="M59.18,35.32c.16-.35.43-.51.82-.47.76.41,1.4.25,1.93-.47.5-.75.83-1.57.99-2.46-.62.12-1.25.23-1.87.35-1.19.27-1.71,1.01-1.58,2.22-.17.18-.34.22-.53.12.11-.5.18-1.01.23-1.52v-.58c.1-.52.16-1.07.18-1.64.24-.22.45-.45.64-.7.46-.04.93-.06,1.4-.06.29-.16.53-.37.7-.64v-.12c.43-.84.71-1.73.82-2.69-.86.2-1.68.54-2.46.99-.27.21-.46.46-.58.76-.15.39-.15.8,0,1.23-.12.15-.26.29-.41.41-.09-1.17-.15-2.34-.18-3.51.04-.08.08-.16.12-.23.14-.22.3-.43.47-.64.81.25,1.41,0,1.81-.76.35-.99.46-2,.35-3.04-.25.12-.47.27-.64.47-.4.18-.79.4-1.17.64-.27.17-.46.38-.58.64-.15.07-.25.18-.29.35-.08.35-.08.7,0,1.05.18.19.2.39.06.58-.08.04-.15.07-.23.12-.29-1.2-.56-2.41-.82-3.63.08-.4.23-.78.47-1.11.73.06,1.25-.24,1.58-.88.23-.97.23-1.95,0-2.92-.05-.17-.15-.23-.29-.18-.64.52-1.24,1.09-1.81,1.7-.43.73-.37,1.41.18,2.05-.08.12-.16.23-.23.35-.1.08-.18.06-.23-.06-.31-1.03-.7-2.02-1.17-2.98.09-.38.21-.75.35-1.11.78-.03,1.27-.41,1.46-1.17.06-1.07-.14-2.08-.58-3.04-.72.6-1.3,1.3-1.75,2.11-.32.78-.15,1.42.53,1.93-.08.19-.17.36-.29.53-.04-.07-.1-.1-.18-.12-.47-1.06-1.04-2.08-1.7-3.04-.06-.43-.08-.86-.06-1.29,1.13-.31,1.54-1.05,1.23-2.22-.15-.43-.29-.86-.41-1.29-.17-.27-.35-.54-.53-.82-.62.73-1.08,1.55-1.4,2.46-.15.75.1,1.29.76,1.64.01.25-.04.49-.18.7-.61-.93-1.31-1.78-2.11-2.57-.06-.47-.08-.93-.06-1.4.71-.12,1.06-.55,1.05-1.29-.21-.98-.64-1.84-1.29-2.57-.05-.14-.13-.26-.23-.35-.19.34-.34.69-.47,1.05-.28.57-.47,1.18-.58,1.81.04.64.35,1.09.94,1.34.13.22.15.46.06.7-.87-.9-1.81-1.72-2.81-2.46-.12-.38-.22-.77-.29-1.17.27-.29.53-.6.76-.94.08-.27.08-.55,0-.82-.3-.71-.71-1.33-1.23-1.87-.19-.25-.4-.48-.64-.7-.04.07-.1.1-.18.12-.19.85-.35,1.71-.47,2.57,0,.43.16.78.47,1.05.19.28.47.43.82.47.13.22.15.46.06.7-.92-.65-1.85-1.28-2.81-1.87-.19-.37-.37-.74-.53-1.11.46-.28.69-.69.7-1.23-.12-.7-.47-1.25-1.05-1.64-.3-.38-.65-.71-1.05-.99-.19-.08-.32-.02-.41.18-.08.86-.08,1.72,0,2.57.13.62.5.97,1.11,1.05.08.11.2.14.35.12.06.19.1.38.12.58-.97-.23-1.91-.56-2.81-.99-.08-.37-.17-.74-.29-1.11-.18-.28-.44-.44-.76-.47-.96-.17-1.94-.15-2.92.06.5.74,1.09,1.4,1.75,1.99.7.42,1.37.36,1.99-.18,1.29.68,2.57,1.36,3.86,2.05-.14.13-.29.22-.47.29-.46-.58-1.05-.73-1.75-.47-.82.59-1.44,1.33-1.87,2.22.61,0,1.21.03,1.81.12.6.02,1.1-.18,1.52-.58.15-1,.71-1.33,1.7-.99.85.58,1.67,1.2,2.46,1.87-.23.08-.47.08-.7,0-.38-.6-.93-.8-1.64-.58-.72.51-1.38,1.07-1.99,1.7v.23c.51.08,1.02.18,1.52.29,1.04.3,1.78-.03,2.22-.99.46-.14.93-.16,1.4-.06.84.82,1.66,1.66,2.46,2.51-.18.11-.38.15-.58.12-.42-.94-1.12-1.2-2.11-.76-.38.24-.77.46-1.17.64,0,.08-.04.12-.12.12-.18.16-.37.29-.58.41.54.36,1.13.64,1.75.82.99.27,1.75-.02,2.28-.88.35.08.7.16,1.05.23.71.81,1.35,1.66,1.93,2.57-.18.11-.38.15-.58.12-.07-.78-.5-1.21-1.29-1.29-.96.22-1.86.59-2.69,1.11.63.44,1.29.83,1.99,1.17.35.08.7.08,1.05,0,.37-.17.7-.39.99-.64.35.05.68.15.99.29.53.92,1.03,1.83,1.52,2.75.06.19.1.38.12.58-.19.03-.37-.01-.53-.12-.01-.41-.15-.76-.41-1.05-.19-.18-.43-.26-.7-.23-.96-.09-1.9.08-2.81.53.62.66,1.32,1.2,2.11,1.64.66.13,1.23-.05,1.7-.53.3.12.59.26.88.41.25.45.49.89.7,1.34.1.6.26,1.18.47,1.75-.15.13-.31.13-.47,0,.05-.68-.22-1.17-.82-1.46-1.03-.25-2.04-.21-3.04.12.39.47.78.94,1.17,1.4.71.71,1.49.8,2.34.29.13.02.24.06.35.12.61.32.93.83.94,1.52.13.82.24,1.64.35,2.46-.04.08-.08.16-.12.23-.18-.11-.34-.25-.47-.41.2-1.03-.22-1.61-1.29-1.75-.74-.12-1.48-.18-2.22-.18.23.57.54,1.08.94,1.52.49.97,1.23,1.24,2.22.82.38.2.71.47.99.82.1,1.1.06,2.19-.12,3.27l-.35-.35c.33-.86.08-1.48-.76-1.87-.79-.36-1.61-.52-2.46-.47.17.44.37.87.58,1.29.31,1.17,1.06,1.6,2.22,1.29.24.21.45.44.64.7.06.98,0,1.96-.18,2.92-.1.35-.22.71-.35,1.05-.13-.16-.25-.34-.35-.53.38-.45.44-.93.18-1.46-.81-.67-1.72-1.14-2.75-1.4,0,.79.16,1.57.47,2.34.42.7,1.04.99,1.87.88.2.31.36.64.47.99-.3,1.06-.63,2.12-.99,3.16-.14-.15-.24-.32-.29-.53.65-1.26.29-2.14-1.05-2.63-.34-.29-.73-.52-1.17-.7-.04.1-.08.19-.12.29.08.52.14,1.05.18,1.58.13,1.03.72,1.58,1.75,1.64.19.33.33.68.41,1.05-.09.22-.21.42-.35.58.02.12-.02.19-.12.23-.33.86-.76,1.68-1.29,2.46-.12-.18-.2-.37-.23-.58.64-.51.75-1.13.35-1.87h-.12c-.53-.65-1.15-1.2-1.87-1.64-.14.54-.21,1.08-.23,1.64-.14,1.18.37,1.84,1.52,1.99.17.56.15,1.1-.06,1.64-.48.77-1.05,1.47-1.7,2.11-.09-.13-.17-.27-.23-.41.48-.22.75-.6.82-1.11v-.47c-.33-.76-.83-1.38-1.52-1.87-.07-.13-.17-.25-.29-.35-.35.63-.52,1.32-.53,2.05-.13.88.22,1.44,1.05,1.7.15.49.15.95,0,1.4-.35.39-.71.78-1.05,1.17-.5.44-.99.91-1.46,1.4-.08-.23-.08-.47,0-.7.71-.26,1.01-.76.88-1.52-.02-.19-.1-.35-.23-.47-.24-.71-.63-1.34-1.17-1.87-.39.66-.68,1.36-.88,2.11-.1.36-.05.67.18.94.13.4.4.64.82.7-.03.43-.09.86-.18,1.29-.21.17-.42.33-.64.47-.59.55-1.26,1.02-1.99,1.4-.11-.18-.15-.38-.12-.58.25.01.49-.04.7-.18.73-.76.77-1.56.12-2.4-.05-.34-.17-.65-.35-.94v-.12c-.1-.11-.19-.23-.29-.35-.45.67-.84,1.37-1.17,2.11-.08.31-.08.62,0,.94.22.37.44.75.64,1.11-.05.31-.15.6-.29.88-1.04.68-2.13,1.26-3.27,1.75-.02-.23,0-.47.06-.7.24.02.47,0,.7-.06.63-.44.86-1.04.7-1.81-.18-.57-.36-1.15-.53-1.75-.08-.11-.18-.13-.29-.06-.25.37-.54.7-.88.99-.82.88-.84,1.78-.06,2.69-.14.27-.27.55-.41.82-.95.53-1.97.92-3.04,1.17-.09,0-.15-.05-.18-.12,0-.13.04-.24.12-.35.82.07,1.35-.28,1.58-1.05.1-.87.06-1.72-.12-2.57-.05-.05-.11-.09-.18-.12-.2.16-.39.31-.58.47-.44.32-.79.71-1.05,1.17-.47.61-.43,1.22.12,1.81-.21.39-.48.72-.82.99-3.22.49-6.46.59-9.71.29-1.06.09-1.8-.34-2.22-1.29.38-.57.44-1.17.18-1.81-.48-.69-1.08-1.24-1.81-1.64-.08.06-.14.14-.18.23-.05.57-.11,1.13-.18,1.7-.05,1.16.49,1.74,1.64,1.75.08.16.16.31.23.47-1.08-.19-2.13-.5-3.16-.94-.19-.35-.39-.7-.58-1.05.14-.12.26-.26.35-.41.22-.43.28-.9.18-1.4-.39-.74-.91-1.36-1.58-1.87-.19.33-.3.68-.35,1.05-.23.63-.29,1.29-.18,1.99.25.5.66.76,1.23.76.1.16.14.33.12.53-1.15-.42-2.24-.97-3.27-1.64-.48-.63-.43-1.18.18-1.64.13-.26.23-.53.29-.82-.22-.89-.61-1.68-1.17-2.4-.11-.07-.21-.05-.29.06-.48.74-.77,1.53-.88,2.4.02.7.37,1.15,1.05,1.34.13.18.15.38.06.58-.92-.54-1.78-1.16-2.57-1.87-.16-.42-.2-.85-.12-1.29.58-.27.87-.71.88-1.34-.13-.89-.42-1.73-.88-2.51-.67.8-1.16,1.69-1.46,2.69,0,.58.27.97.82,1.17.13.22.15.46.06.7-.94-.78-1.79-1.64-2.57-2.57-.08-.43-.08-.86,0-1.29.57-.14.96-.5,1.17-1.05.07-.97-.09-1.91-.47-2.81-.72.6-1.3,1.3-1.75,2.11-.08.39-.08.78,0,1.17l.64.64-.18.53c-.62-.86-1.25-1.72-1.87-2.57-.05-.43-.03-.86.06-1.29.55-.03,1-.27,1.34-.7.32-.88.36-1.77.12-2.69-.04-.09-.09-.17-.18-.23-.51.35-.97.74-1.4,1.17-.27.18-.49.41-.64.7-.21.7-.03,1.26.53,1.7-.11.17-.21.34-.29.53-.67-1.05-1.24-2.16-1.7-3.33.12-.35.23-.71.35-1.05.69,0,1.22-.3,1.58-.88.25-.88.37-1.78.35-2.69-.67.33-1.32.7-1.93,1.11-.66.44-.88,1.04-.64,1.81.37.3.37.61,0,.94-.38-.91-.7-1.85-.94-2.81-.04-1.03.45-1.54,1.46-1.52.3-.12.55-.32.76-.58.3-.72.51-1.46.64-2.22-.08-.04-.16-.08-.23-.12-.52.14-1.03.32-1.52.53-1.2.45-1.51,1.23-.94,2.34-.14.16-.3.3-.47.41-.28-1.24-.46-2.48-.53-3.74.23-.31.47-.62.7-.94.5.32.98.3,1.46-.06.65-.71,1.12-1.53,1.4-2.46-.68-.08-1.34,0-1.99.23-.43.1-.78.31-1.05.64-.42.43-.46.9-.12,1.4-.1.16-.23.27-.41.35-.16-.65-.22-1.31-.18-1.99-.02-.48.02-.94.12-1.4.27-.23.54-.47.82-.7,1.01.48,1.79.25,2.34-.7.1-.04.14-.12.12-.23.28-.39.56-.8.82-1.23-.83-.1-1.65-.06-2.46.12-.73.09-1.12.5-1.17,1.23.22.42.11.7-.35.82,0-1.21.19-2.41.53-3.63.3-.28.63-.51.99-.7.65.44,1.31.46,1.99.06.57-.51,1.08-1.08,1.52-1.7-.67-.19-1.35-.31-2.05-.35-1.15-.03-1.73.51-1.75,1.64-.16.08-.31.16-.47.23.18-1.09.51-2.14.99-3.16.32-.16.63-.31.94-.47,1.07.7,2.05.58,2.92-.35.16-.08.27-.19.35-.35.2-.07.38-.19.53-.35.07-.11.03-.19-.12-.23-.74-.24-1.5-.39-2.28-.47-.92-.05-1.38.38-1.4,1.29,0,.08-.04.12-.12.12-.17.03-.33,0-.47-.12.51-1.12,1.1-2.19,1.75-3.22.33-.11.66-.2.99-.29.33.47.78.74,1.34.82.95-.24,1.81-.67,2.57-1.29-.81-.56-1.71-.91-2.69-1.05-.67.04-1.1.4-1.29,1.05-.18.13-.38.15-.58.06.36-.46.67-.95.94-1.46.32-.32.59-.67.82-1.05.45-.19.92-.25,1.4-.18.15.27.35.5.58.7,1.18.25,2.28.02,3.27-.7-.78-.74-1.7-1.23-2.75-1.46-.53.06-.9.33-1.11.82-.25.15-.48.15-.7,0,.88-.86,1.77-1.7,2.69-2.51.39-.08.78-.08,1.17,0,.14.57.5.96,1.05,1.17.86.06,1.68-.07,2.46-.41.12.02.24,0,.35-.06l-1.17-1.17c-.49-.46-1.08-.67-1.75-.64-.39.06-.66.27-.82.64-.22.09-.42.05-.58-.12.49-.44,1-.85,1.52-1.23.41-.26.84-.5,1.29-.7.27.07.54.12.82.18.15.61.5,1.08,1.05,1.4.86.09,1.72.07,2.57-.06l.12-.12c-.48-.81-1.1-1.49-1.87-2.05-.35-.08-.7-.08-1.05,0-.23.19-.48.33-.76.41-.1-.02-.19-.04-.29-.06-.14-.08-.14-.14,0-.18.61-.32,1.19-.67,1.75-1.05.69-.29,1.37-.61,2.05-.94.31.21.64.36.99.47.28-.04.55-.1.82-.18.69-.62,1.31-1.3,1.87-2.05-.14-.09-.3-.15-.47-.18-.82-.08-1.64-.08-2.46,0-.67.33-1.02.87-1.05,1.64-.85.36-1.7.7-2.57.99-.13-.18-.15-.38-.06-.58.64-.05,1.11-.36,1.4-.94.24-1.06.22-2.11-.06-3.16-.93.56-1.69,1.3-2.28,2.22-.08.35-.08.7,0,1.05.18.25.35.51.53.76-.09.35-.23.68-.41.99-.94.62-1.87,1.25-2.81,1.87-.08-.19-.08-.39,0-.58.43-.12.78-.35,1.05-.7.26-1.13.16-2.25-.29-3.33-.04-.15-.12-.19-.23-.12-.7.66-1.27,1.42-1.7,2.28-.23.82.02,1.45.76,1.87-.07.11-.11.22-.12.35-.02.24-.08.48-.18.7-.94.86-1.87,1.72-2.81,2.57-.19-.18-.21-.37-.06-.58.29-.14.52-.34.7-.58.06-.11.12-.23.18-.35.04-1.2-.3-2.29-.99-3.27-.57.76-1.04,1.58-1.4,2.46-.02.35,0,.7.06,1.05.19.44.52.68.99.7,0,.58-.11,1.13-.35,1.64-.16.08-.27.19-.35.35-.54.64-1.07,1.3-1.58,1.99-.3-.49-.19-.84.35-1.05.48-1.16.26-2.17-.64-3.04.02-.12-.02-.19-.12-.23-.05-.35-.23-.47-.53-.35-.28.53-.51,1.07-.7,1.64-.5,1.19-.16,2,.99,2.46.12.42.15.85.12,1.29-.65,1.03-1.28,2.08-1.87,3.16-.12-.11-.2-.25-.23-.41.58-.59.72-1.27.41-2.05-.47-.79-1.06-1.49-1.75-2.11-.48,1.09-.64,2.22-.47,3.39.29.61.78.88,1.46.82.12.46.18.93.18,1.4-.46.95-.85,1.92-1.17,2.92-.14-.11-.24-.24-.29-.41.43-.71.45-1.43.06-2.16-.59-.67-1.26-1.26-1.99-1.75-.18,1.04-.22,2.1-.12,3.16.34.69.91,1.04,1.7,1.05.18.31.29.64.35.99-.32,1.21-.55,2.44-.7,3.68-.25-.03-.4-.17-.47-.41.24-.49.28-.98.12-1.46-.16-.34-.4-.63-.7-.88-.6-.4-1.23-.77-1.87-1.11-.13.7-.11,1.4.06,2.11.08,1.31.76,1.86,2.05,1.64.23.23.41.5.53.82.07,1.17,0,2.34-.18,3.51-.18-.08-.3-.22-.35-.41.16-.49.14-.98-.06-1.46-.86-.67-1.81-1.18-2.87-1.52l-.12.12c.07.29.14.56.23.82-.02.35.05.66.23.94.08.49.28.92.58,1.29.07.15.18.25.35.29.41.08.82.06,1.23-.06.15.02.25.09.29.23.24.2.45.44.64.7.04,1.1.14,2.19.29,3.27-.04.16-.08.31-.12.47-.08-.04-.16-.08-.23-.12-.1-.38-.15-.77-.18-1.17-.08-.21-.21-.37-.41-.47-.05-.11-.13-.21-.23-.29-.33-.13-.64-.26-.94-.41-.62-.14-1.25-.23-1.87-.29.28.89.67,1.73,1.17,2.51.59.75,1.29.87,2.11.35.26.22.53.42.82.58.29,1.13.6,2.26.94,3.39-.17,0-.32-.03-.47-.12.05-.82-.3-1.39-1.05-1.7-.92-.26-1.85-.34-2.81-.23.29.59.62,1.16.99,1.7.68,1.14,1.55,1.34,2.63.58.37.2.72.44,1.05.7.41,1.17.92,2.3,1.52,3.39-.09.07-.2.07-.35,0h-.35c.08-.68-.2-1.17-.82-1.46-1.06-.24-2.12-.21-3.16.12.53.71,1.11,1.37,1.75,1.99.5.41,1.05.49,1.64.23.2-.3.47-.48.82-.53.32.21.65.4.99.58.49.93,1.06,1.8,1.7,2.63-.19.08-.39.08-.58,0-.15-.58-.5-.97-1.05-1.17-1.02-.1-2.02.04-2.98.41-.15.04-.19.12-.12.23.61.57,1.25,1.1,1.93,1.58.49.29,1,.33,1.52.12.44-.67,1.02-.83,1.75-.47.81,1.04,1.71,2.02,2.69,2.92-.23.08-.47.08-.7,0-.67-1.07-1.56-1.28-2.69-.64-.55.14-1.06.37-1.52.7.24.24.52.44.82.58.62.47,1.32.78,2.11.94.65-.05,1.08-.38,1.29-.99.43-.08.86-.08,1.29,0,.86.7,1.72,1.4,2.57,2.11-.13.07-.27.13-.41.18-.29-.17-.54-.38-.76-.64-.24-.12-.49-.18-.76-.18-1.07.25-2.02.74-2.87,1.46.87.53,1.8.86,2.81.99.92.05,1.39-.38,1.4-1.29.51-.02,1.01,0,1.52.06.99.71,2.05,1.34,3.16,1.87-.43.24-.82.18-1.17-.18-.21-.14-.44-.22-.7-.23-.93.27-1.71.78-2.34,1.52-.17.11-.33.25-.47.41.46.19.92.35,1.4.47.82.29,1.6.23,2.34-.18.29-.36.49-.77.58-1.23.3-.1.62-.15.94-.18,1.11.32,2.2.71,3.27,1.17-.17.17-.36.29-.58.35-.46-.46-1.01-.58-1.64-.35-.84.58-1.54,1.31-2.11,2.16,1.07.34,2.16.38,3.27.12.61-.36.87-.89.76-1.58.38-.19.77-.34,1.17-.47,1.86.51,3.75.85,5.67.99-1.97.65-3.53,1.81-4.68,3.51.55.1,1.1.08,1.64-.06l.18-.35c1.19-1.28,2.63-2.13,4.33-2.57,1.15.4,2.24.9,3.27,1.52.49.42.9.9,1.23,1.46.51.1,1.02.08,1.52-.06-1.1-1.7-2.62-2.85-4.56-3.45,1.98-.14,3.93-.47,5.85-.99.36.12.71.28,1.05.47.07.45.2.88.41,1.29.11.14.24.24.41.29,1.09.23,2.18.21,3.27-.06-.52-.85-1.18-1.57-1.99-2.16-.67-.29-1.28-.2-1.81.29-.19-.05-.33-.17-.41-.35.95-.34,1.88-.71,2.81-1.11.45-.07.88,0,1.29.18.2.26.33.57.41.94.08.1.18.18.29.23.07.15.18.25.35.29,1.08.07,2.13-.07,3.16-.41.02-.12,0-.24-.06-.35-.61-.63-1.29-1.15-2.05-1.58-.71-.24-1.3-.07-1.75.53h-.23c-.11-.1-.23-.19-.35-.29,1.11-.53,2.16-1.16,3.16-1.87.47-.07.94-.05,1.4.06,0,.21.06.41.18.58.52.7,1.16.86,1.93.47.77-.13,1.47-.42,2.11-.88-.49-.42-1.04-.75-1.64-.99,0-.08-.04-.12-.12-.12-1-.59-1.82-.4-2.46.58-.17-.06-.32-.13-.47-.23.45-.48.95-.87,1.52-1.17.49-.86,1.23-1.21,2.22-1.05.11.26.26.5.47.7.24.23.53.34.88.35,1.13-.22,2.12-.71,2.98-1.46-.11-.03-.19-.09-.23-.18-.85-.39-1.72-.71-2.63-.94-.44.09-.81.29-1.11.58v.12c-.13.2-.33.32-.58.35-.12-.02-.23-.04-.35-.06.69-.67,1.35-1.35,1.99-2.05.27-.63.74-.98,1.4-1.05h.47c.08.26.24.47.47.64.5.21,1.01.21,1.52,0,.53-.35,1.03-.72,1.52-1.11.17-.23.37-.44.58-.64-.97-.39-1.99-.57-3.04-.53h-.35c-.48.29-.75.72-.82,1.29-.24.02-.47,0-.7-.06.5-.63.96-1.27,1.4-1.93.14-.3.3-.59.47-.88.37-.18.74-.35,1.11-.53.5.7,1.14.87,1.93.53.86-.61,1.52-1.37,1.99-2.28-.6-.05-1.21-.08-1.81-.12-1.31-.2-2.03.35-2.16,1.64-.21.03-.4,0-.58-.12.58-1.05,1.07-2.14,1.46-3.27.31-.29.66-.53,1.05-.7.2.05.38.15.53.29.79.23,1.42.02,1.87-.64.54-.62.97-1.32,1.29-2.11-.75,0-1.49.06-2.22.18-.28.03-.51.13-.7.29-.12-.02-.19.02-.23.12-.52.37-.72.87-.58,1.52-.17,0-.32.03-.47.12-.04-.08-.08-.16-.12-.23.31-.96.56-1.94.76-2.92.12-.14.26-.26.41-.35Z"/>
    </g>
  </g>
</svg>