<?xml version="1.0" encoding="UTF-8"?>
<svg id="Camada_2" data-name="Camada 2" xmlns="http://www.w3.org/2000/svg" xmlns:xlink="http://www.w3.org/1999/xlink" viewBox="0 0 1366.49 698">
  <defs>
    <style>
      .cls-1 {
        fill: #331337;
      }

      .cls-1, .cls-2, .cls-3, .cls-4, .cls-5, .cls-6 {
        stroke-width: 0px;
      }

      .cls-2, .cls-3 {
        fill: #f0ae76;
      }

      .cls-7 {
        clip-path: url(#clippath-2);
      }

      .cls-3, .cls-6 {
        fill-rule: evenodd;
      }

      .cls-4 {
        fill: none;
      }

      .cls-8 {
        clip-path: url(#clippath-1);
      }

      .cls-5, .cls-6 {
        fill: #aa504e;
      }

      .cls-9 {
        opacity: .3;
      }

      .cls-10 {
        clip-path: url(#clippath);
      }
    </style>
    <clipPath id="clippath">
      <rect class="cls-4" width="1366.49" height="698"/>
    </clipPath>
    <clipPath id="clippath-1">
      <path class="cls-4" d="M113.92,328.44s4.49,165.77,127.95,186.48c-30.86,8.05-146.47-8.64-191.08-174.39l63.13-12.09Z"/>
    </clipPath>
    <clipPath id="clippath-2">
      <path class="cls-4" d="M370.64,328.44s-5.32,165.77-128.78,186.48c30.86,8.05,146.04-8.64,190.66-174.39l-61.88-12.09Z"/>
    </clipPath>
  </defs>
  <g id="ArtBoard1">
    <g>
      <g class="cls-9">
        <path class="cls-3" d="M40.99,262.89s194.07,128.34,659.12,130.11c465.05,1.77,23.59,304.95,23.59,304.95H40.99v-435.06Z"/>
        <path class="cls-3" d="M545.75,278.16c218.57,0,355.22-101.2,779.74-101.2v248.36h-741.89l-37.85-147.15Z"/>
      </g>
      <g>
        <path class="cls-3" d="M40.99,537.16c358.02,86.2,301.73-96.82,434.41-94.85,132.68,1.97,8.67,201.91,8.67,201.91H40.99v-107.06Z"/>
        <polygon class="cls-3" points="801.52 225.69 740.32 259.9 740.32 610.49 862.73 610.49 862.73 259.9 801.52 225.69"/>
        <g>
          <rect class="cls-2" x="896.03" y="247.77" width="60.03" height="123.13"/>
          <rect class="cls-2" x="892.55" y="304.41" width="67" height="6.25"/>
          <rect class="cls-2" x="892.55" y="247.77" width="67" height="6.25"/>
          <rect class="cls-2" x="897" y="193.41" width="58.11" height="6.25"/>
          <rect class="cls-2" x="899.4" y="196.53" width="53.31" height="80.16"/>
          <g>
            <polygon class="cls-2" points="906.76 179.55 904.95 179.55 904.95 176.96 901.53 176.96 901.53 179.55 899.73 179.55 899.73 182.31 901.53 182.31 901.53 196.53 904.95 196.53 904.95 182.31 906.76 182.31 906.76 179.55"/>
            <polygon class="cls-2" points="952.38 179.55 950.58 179.55 950.58 176.96 947.16 176.96 947.16 179.55 945.36 179.55 945.36 182.31 947.16 182.31 947.16 196.53 950.58 196.53 950.58 182.31 952.38 182.31 952.38 179.55"/>
          </g>
          <path class="cls-2" d="M938.12,157.19c-6.47-6.17-9.55-8.31-9.55-14.4h-5.04c0,6.1-3.07,8.23-9.54,14.4-5.9,5.62-1.44,33.07-4.51,36.21l16.57,2.02,16.57-2.02c-3.07-3.14,1.38-30.59-4.51-36.21Z"/>
          <rect class="cls-2" x="924.64" y="127.64" width="2.83" height="21.98"/>
          <path class="cls-2" d="M929.92,136.6c0,2.19-1.73,3.96-3.87,3.96s-3.87-1.77-3.87-3.96,1.73-3.98,3.87-3.98,3.87,1.78,3.87,3.98Z"/>
        </g>
        <path class="cls-2" d="M1136.54,345.14h-36.17v-44.69h2.82v-6.85h-4.63c-1.85-28.36-15.91-40.03-26.84-44.84v-6h-2.76v-20.94h-2.13c-.13-2.2-1.12-7.47-7.24-9.95v-20.74h3.69v-1.98h-3.69v-3.95h-1.93v3.95h-3.69v1.98h3.69v20.74c-6.12,2.48-7.11,7.75-7.24,9.94h-2.14v20.94h-2.76v6c-10.92,4.81-24.99,16.48-26.84,44.84h-4.62v6.85h2.82v44.69h-36.17v11.94h3.77v117.3h148.28v-117.3h3.77v-11.94Z"/>
        <polygon class="cls-3" points="743.43 157.98 711.84 192.19 711.84 542.78 775.02 542.78 775.02 192.19 743.43 157.98"/>
        <polygon class="cls-3" points="631.01 99.12 569.81 133.33 569.81 483.92 692.22 483.92 692.22 133.33 631.01 99.12"/>
        <polygon class="cls-3" points="1287.49 137.39 1226.29 171.61 1226.29 522.19 1348.7 522.19 1348.7 171.61 1287.49 137.39"/>
        <polygon class="cls-3" points="1257.37 697.95 1123.26 697.95 1123.26 2.81 1257.37 99.12 1257.37 697.95"/>
        <rect class="cls-2" x="809.15" y="350.38" width="271.74" height="218.1"/>
      </g>
      <g>
        <rect class="cls-5" x="27.33" y="583.59" width="280.13" height="30.22"/>
        <rect class="cls-5" x="214.77" y="568.48" width="280.13" height="50.45"/>
        <rect class="cls-5" x="248.14" y="543.26" width="280.13" height="50.45"/>
        <rect class="cls-5" x="81.43" y="543.26" width="29.26" height="50.45"/>
        <polygon class="cls-6" points="865.07 200.62 827.9 236.53 827.9 604.45 902.25 604.45 902.25 236.53 865.07 200.62"/>
        <rect class="cls-5" x="461.87" y="14.03" width="111.19" height="631.54"/>
        <rect class="cls-5" x="546.35" y="34.61" width="46.92" height="631.54"/>
        <rect class="cls-5" x="980.73" y="438.46" width="280.48" height="244.47"/>
        <path class="cls-6" d="M913.86,640.39l4.78-70.48c13.75-30.74.3-112.29,0-121.16-.07-2.31-6.9-2.88-7.6-2.88-.98-.01-1.77,1.03-.88,2.35.58.86.84,2.23-.44,2.14-1.47-.1-3.67.27-4.35-1.22-.51-1.14-2.92-2.84-.26-4.43.47-.27.15-.64-.09-.8-.25-.19-.69-.39-.9-.3-.97.47-2.2,1.29-1.81,2.33.76,2.07-.8,2.75-1.68,3.82-.53.65-.73,2.02-1.98,1.62-1.04-.33-.47-1.5-.81-2.13-.75-1.35-1.41-4.48-3.36-.73-.66,1.27-1.33.31-1.96-.1-.67-.42-1.44-1.29-2.14-.42-3.16,3.9-2.56-.25-3.32-1.99-.46,1.37-.33,2.87-2.02,2.91-.13-.34-.22-.67-.34-.97-.88-2.23-3.61-4.28-.53-6.85.12-.09-.08-.9-.18-.91-2.3-.27-2.95-3.15-5.68-3.31-1.8-.1-2.05-.36-1.95,1.49.12,2.29-.97,2.09-2.28.92-.95-.86-2.03-1.65-2.73-2.7-1.25-1.85-2.36-3.68-5.2-2.91.62,2.38,2.31,4.75.52,7.29,4.57,3.61-1.07,2.24-1.69,3.16-.37.55-2.18.4-3.11-1.14-.66-1.1-1.94-2.33-3.78-2.06.34,1.3.68,2.5,1,3.7-1.69-2.04-6.42,1.99-5.99-3.79-1.63,3.1-4.88,3.32-6.82,6.22-.42-1.77-.71-3.37-2.35-3.42-1.85-.04.14,2.04-1.33,2.69-1.04.46.41,1.75.67,1.88,2.58,1.27,2.06,2.61.94,4.88-1.33,2.73-3.63,2.72-5.17,1.88-2.66-1.44-3.01,1.17-4.46,1.71-2.09.77-.31,1.56-.14,2.11.25.86.05,1.84-.54,1.66-1.79-.55-4.37-.08-4.97-2.59-.4-1.68-.8-2.35-2.31-1.26-.96.69-3.49.35-1.61,3.02.96,1.38,1.25,3.63-1.83,2.19-.53-.25-.81.01-1.24.2-.89.39-1.66,3-2.84.3-.49-1.11-2.09-1.88-1.56-3.25.72-1.84-.29-2-1.53-2.25-.99-.18-2.34,0-1.95-1.8.43-1.91-.15-2.38-2.07-2.06-1.13.18-2.37,1.13-3.44-.74-1.2-2.09-.58-7.54,1.56-9.61,2.18-2.1,1.98-4.29-.83-4.78-3.46-.63-2.53-3.32-2.65-5.14-.1-1.74,2.57-2.51,4.68-1.64.76.31,1.17-.26,1.31-.78.41-1.51,1.11-3.19-1.22-3.82-1.53-.41-1.7-1.71-.52-2.23,2.93-1.28.72-2.98.96-4.41.41-2.42.93-4.57,0-6.9,2.2-.88.34-1.76-.03-2.59-.65-1.48-1.5-.58-2.51-.41-1.23.2-1.42,2.46-3.52,1.31-.84-.46-3.44-.28-4.12-.96-1-.97.79-2.26,1.5-3.38.25-.41.3-.96.45-1.45-1.69,1.59-3.05,1.83-3.9-.67-.39-1.16-1.33-.68-2.05-.89-1.69-.53-2.02-2.32-2.62-3.58-.29-.63-.6-3.2.68-3.4,3.53-.53,2.26-3.46,1.86-4.67-.61-1.8.02-2.63,1.14-2.86,1.79-.35,1.66-1.08,1.08-2.38-.95-2.13-1.46-4.14,1.52-5.15,1.76-.59,2.77-1.66,2.53-3.92-.19-1.91-.7-2.25-2.6-2.65-2.35-.51-1.78-3.47-1.54-5.18.26-1.94,1.83.13,2.82-.12.33-.07.69,0,.84,0-.14-2.88.27-5.14,2.88-7.11,1.6-1.22,3.41-1.75,5.02-2.38,2.83-1.13,3.38-4.68,6.89-5.32,2.03-.37,2.74-.3,3.74,1.52.2-1.49.93-2.42,1.73-2.92,1.36-.86,3.13-2.02,4.49-.32,1.43,1.79,3.82,2.04,5.03.13,1.92-3.05.94-8.89-1.85-11-.34-.27-.76-.9-1.15-.45-3.89,4.41-2.11-2.51-3.98-2.07.2-.3.76-1.07.15-.88-3.84,1.22-3.82-.9-3.26-3.65.01-.08-.13-.2-.19-.28-1.26-1.49-.51-2.04.99-2.31,2.33-.42,4.66-.88,6.91-1.31-.14-1.04-.65-1.15-1.21-1.43-2.33-1.16-1.59-3.56-1.6-5.42,0-1.56,2.57-.41,3.06-2.01,2.09,1.36,3.24-.61,4.55-1.53,1.59-1.13,3.13-1.92,5.6-1.35-3.99-1.32-2.93-4.03-1.67-5.82,1.55-2.22,1.37-4.09.29-6.44,2.38,1.67,3.93-.42,5.73-.66,3.47-.46,2.38-2.21,1.94-4.18-.27-1.22-.24-2.52-.35-3.97,2.29,1.4,5.48-1.61,7.02,2.08.19.43,1.02-.66,1.35-1.26.66-1.23,1.3-2.46,2.07-3.93.37.51.59.74.71,1.01,1.82,4.28,1.63,3.64,5.74,2.4,2.3-.7,1.31-2.33,2.3-3.17,1.78-1.52,1.85-2.69.85-4.65-.48-.93-.73-.86-1.48-.28-2.31,1.75-4.23,3.4-7.79,1.63-2.95-1.47-4.96-2.85-3.95-5.94.99-3.01,4.73-4.67,6.43-2.82.47.52.62,2.16,1.49,1.22.8-.86,2.03-1.46,2.34-2.92.38-1.75-1.16-1.04-1.6-1.63-.47-.63-1.59-.68-1.52-1.78.21-2.95.28-5.95,3.25-7.67-1.65-1.7-3.08-8.86-2.2-10.86.24-.54.68-.7,1.1-.42.81.53,1.42.29,1.62-.53.6-2.71,1.92-2.17,3.38-.82,2.15,1.97,4.26,3.96,7.39,1.89.17-.11.77.1.87.32,1.02,2.01,2.26.84,3.51.38-.96-1.7-3.37-1.03-4.12-2.66,2.16-3.24,4.9-3.5,8.2-2.38,1.01.34,2.64-1.46,3.05,1.1.06.38.65-.04,1.05-.29.65-.39,1-2.49,2.25-.68.92,1.34,1.73,2.74.54,4.4-.7.97-2.01,1.63-1.67,3.32,1.4.11,2.16-.64,2.59-1.8.79-2.15,2.87-2.75,4.47-2.72,1.38.02,2.08,2.33,3.63,3.12,1.04.53-1.48,1.36-.4,1.56,2.19.41,3.73,3.9,6.53,1.51.26-.22,1.38.07,1.55.41,1.58,3.13,3.57,1.97,5.36.48,1,.82-.6,1.81.45,2.16.49.16,1.37-.36,1.11-1.38-.46-1.83,1.64-1.62,2.15-2.95-.88-.96-2.58-1.52-2.28-3.46.31-2,2.16-1.33,3.21-1.89,1.41-.74,2.84.38,3.83,1.71,1.24,1.66,2.87.35,4.3.47.52.04.78-.07.48-.79-1.32-3.13,1.3-4.73,3.08-5.15,1.41-.33,4.53.49,3.43,3.94,2.78-2.04,4.72-4.24,5.69-7.45.5-1.65,5.47-.96,6.38.73,1.12-2.43,2.92-4.06,4.88-3.84,2.19.25,2.71,3.05,4.73,3.75-1.8,1.81,1.39,3.61-.03,5.65-.45.66.36,2.26.6,3.42,1.58-.63,2.71,3.91,4.59.43.07-.15.68-.2.85-.06,3.26,2.65,6.76,5.07,8.02,9.67,1.25-1.35,2.97-1.96,3.1-3.92-.79-.36-1.88,1.52-2.22-.08-.33-1.56-.96-3.63.46-4.81,1.4-1.19,3.78-2.85,4.89-2.35,2.48,1.11,4.08-.86,6.14-.77,2.12.1,3.97-2.66,6.26-1.14,4.03,2.66,4.07,4.79,2.99,9.89-.4,1.87-1.44,2.56-2.21,3.71-.74,1.1-.93,3.19-.76,3.18,2.41-.07,3.14,4.65,6.17,1.89.3,1.37-.42,2.15-.18,3.34.57,2.88-2.22,3.55-4.08,4.24-.46.17-4.6,1.46-3.44-2.62.2-.71-.91-.52-1.18-.79-1.81-1.82-3.95-.43-5.89-.79-1.96-.36-1.25,2.65-2.97,2.8.17,1.32,1.28,1.5,2.21,1.9,2.49,1.07,4.84,2.61,7.77,1.98,1.78-.38,2.74.5,3.31,2.3.53,1.69,1.93,3.26-.58,4.47,1.46,1.31,3.2-.5,4.51.97-.48.53-1.06.95-1.35,1.54-.22.46-.3,1.28.46,1.48.46.13.86-.23.91-.8.33-4.05,4.09-2.43,6.02-3.83,1.24,2.14,4.55,1.54,5.3,4.68.5,2.15-.12,6.05,4.24,5.27.1-.01.45.55.4.8-.24,1.34-1.14,2.85-.09,3.97,1.67,1.79,2.12-.81,3.2-1.23.09-.04.26-.11.29-.08,2.23,2.87,3.32-.03,4.06-1.19,2.31-3.68,4.72-2.55,7.44-.86-.58,1.53-3.32,2.36-1.96,3.72,1.14,1.15.87,1.74.41,2.56-1.6,2.87-.3,3.09,2.16,2.91,2.5-.18,4.18.82,3.08,3.84-.27.71-.16,1.25.35,1.52,2.5,1.3,1.14,3.37.28,4.35-1.16,1.3-3.74,1.98-4.85.84-.9-.89-2.98-1.45-2.46-4.2.69-3.77-3.99.43-4.75-2.46-.1-.39-1.71.01-1.52,1.16.47,2.92-1.93,6.8,3.78,8.42-3.09.47-3.82,1.55-3.43,3.62.16.8-.65,2.83-1.17,2.14-1.83-2.4-4.45-.97-6.36-2.24,1.62,1.56-.58,4.98,2.91,5.21-.44.61-.64.9-.84,1.19-2.49,3.58-4.8,3.64-7.63.21-.78-.95-5.25-1.11-5.56-.13-.75,2.23-2.63,3.43-4.5,3.75-1.44.24-.11-2.47-1.52-3.17-.2-.09-.1-.69-.3-.93-2-2.5-2.87,1.24-4.49.86-.32-.07-1.03-.71-.74.07.58,1.53,1.07,3.23,3.03,3.86,1.66.53,2.89,1.88,3.39,3.68.61,2.16-2.24.63-2.26,2.28,2.15,2.22,4.13-1.98,6.65-.36.55.36.86-3.83,2.63-5.37.92,2.76,2.23,2.91,3.91.88,1.99-2.37,3.04-1.67,3.46,1.1.16,1.05.28,2.11.5,3.15.05.21.49.33.97.6v-3c4.01.94,4.26.73,3.53-3.07-.22-1.13-.07-1.44,1.1-1.96,2.03-.91,5.04.16,5.77-3.24,2.02,2.58,4.46,4.54,3.11,8.07-.2.51.77.94,1.28.73,2.12-.85,1.83,1.2,2.44,2.09,1.02,1.47-.36,1.41-1.14,1.77-.67.31-.82,1.09-.25,1.39,4.34,2.23-.07,3.41-.76,3.54-2.05.4-2.08,1.27-1.09,2.58,1.28,1.7,1.1,2.87-1.34,3.84,1.92.27,2.89.63,2.5,2.7-.22,1.12,1.2,2.39.91,3.98-.04.24,2.17-.23,2.7.86.6,1.28-.32,1.95-1.46,2.28.21.19.4.46.64.57,3.13,1.42,1.84,1.87-.31,3.05-1.65.9-4.9.19-4.63,3.93.06.71-1.22,0-1.82-.59-.93-.9-4.14-1.19-5.16-.6-.99.58-2.63,1.45-2.1,2.34.56.95.95,2.74,2.82,2.64,1.63-.06,2.01.54,1.01,2.14-.42.67-.38,2.03.28,3.02,1.31-.83,2.83-1.46,1.94-3.48-.29-.65-.22-1.4.47-1.35,1.88.12,2.87-.11,1.62-2.27-.22-.39.13-1.23.6-.94,1.69,1.05,4.27-.96,5.46,2.21,1.31,3.51,1.67,3.39,4.78,2.03.09-.04.23.03.34.03,3.96.13,6.56-2.57,9.34-4.98.64,1.08-.2,2.27.95,3.07,1.19.83.42,2.56-.15,2.89-.71.41-1.19.56-.86,1.38.33.85,1.09.67,1.81.53.93-.18,1.84-1.41,2.82-.18,1.9,2.37,4.63,3.73,6.68,5.89,1.03,1.09,4.85,2.31.16,3.79-.33.1-.77.98-.67,1.12,1.75,2.36-2.33,3.03-1.39,5.12-.41.13-.9.46-1.23.35-3.29-1.03-3.52,1.92-2.64,3.13,2.37,3.26,1.74,6.02-.06,9.02-.06.09.18.38.28.58,1.29-1.72,6.28-3.21,6.84-1.91.78,1.86-1.32,3.19-2.14,4.78-.05.08.03.24.1.62.98.6,3.9-.39,2.74,2.73-.03.13,1.04.41,1.48-.55.96-2.09,2.91-3.22,5.15-5.57-1.24,4.47,2.17,4.28,3.88,6.09-3.95,1.34-.82,6.19-5.12,7.98,3,.19,4.04-1.98,6.38-2.17-.48,1.29-.43,2.44-.22,3.67.45,2.47-2.24,2.99-3.66,3.54-1.68.68-1.09-1.46-1.15-2.41-.11-1.61-1.39-1.76-2.38-2.27-.35-.19-1.17-.17-1.25,0-.49,1.15-.5,2.47.24,3.41,1.57,2.03,1.05,3.45-.91,4.65.98,1.18,3.39-.4,3.49,1.51.08,1.74,1.64,4.88-2.36,4.84-.28,0-.78.93-.82,1.45-.12,1.67-1,1.82-2.1,1.09-2.1-1.4-2.9-.78-2.91,1.65,0,1.9-.9,2.07-2.12.9-1.49-1.43-2.8-2.09-4.08.23-.77,1.41-1.93,1.31-2.11-.14-.26-1.94-.69-1.93-1.99-.85-1.43,1.19-2.17.65-1.77-1.1.18-.79.4-1.4-.34-1.82-1.62-.89-2.73-1.97-3-4.05-.13-.95-1.59-1.37-2.68-1.25-1.56.18-.06,1.13-.29,1.71-.52,1.42-1.27.76-2.21.63-2.73-.41-2.31-4.34-5.15-4.59-.67-.06-.53-2.3-1.8-1.14-.82.74-1.55,1.89-.28,3.29,1.18,1.28.35,1.72-1.12,2.15-.92.27-3.04.56-2.73,1.38.7,1.93-1.68,2.19-1.44,3.62,1.27.84,3.68-.31,3.85,1.63.14,1.55-1.88,2.23-3.18,3.06-.73.45-1.89.8-1.55,2.06,1.08,3.92-.49,2.32-2.63,1.75-2.63-.7-1.7-3.02-2.98-4.71-2.19,2.98-4.44,5.72-8.21,6.28-.33.04-1.54.32-.41,1.58,1.77,2.01.86,3.54-1.44,4.94-1.68,1.02-4.63-1.46-5.29,2.16-.08.44-1.08-.35-1.63-.75-2.77-2.04-1.01-4.92-1.14-7.48-2.67,1.03-2.58,3.53-3.21,5.95-1.54-1.1-2.79-2.59-4.26-.46-.38.55-1.39-.27-1.41-1.01-.02-1.17-.18-2.44-1.37-2.45-1.22-.02-1.21,1.44-1.56,2.44-.15.42-1.03,2-1.6.44-1.33-3.7-2.36-.69-2.99.19-1.35,1.9-1.91,1.57-2.8-.36-.95-2.05-.36-4.57-2.03-6.35,2.63-.62,2.05-3.64,1.89-4.63-.31-1.79-.54-5.96-4.58-3.22-.9.62-1.45-.04-1.78-.95-.33-.91-1.16-1.44-1.89-.84-1.08.87.17,1.27.59,1.87,1.75,2.46,4.17,4.41,5.37,7.29-.51-.03-1.39-.89-1.27-.51.65,2.07-1.52,3.24-1.32,4.96.33,2.77-.75,2.18-2.28,1.24-1.68-1.05-3.23-1.42-3.58,1.39-.1.75.37,1.78-.71,2.15-1.26.41-1.36-1.32-2.11-1.41-1.39-.17-.67-2.9-2.63-2.09-.93.38-1.99,2.3-2.73.54-.42-.99-.69-2.85.75-4.23,1.97-1.89,3.54-3.05,5.64-.19.37.51,1.4,2.01,2.47.48.88-1.27-.45-1.58-1.03-2.18-.31-.33-.76-.57-1.18-.71-2.94-1.1-1.46-4.86-3.8-6.53-.85-.6.68-1.58,1.39-2.35.8-.9-.19-1.28-1.04-1.59-2.64-.96-5.59-1.05-7.87-3.03-.38-.33-1.12-.45-1.64-.35-2.14.43-14.55,7.55-14.58,9.95-.1,6.48,5.78,96.22,5.78,96.22-8.34,47.32.05,86.97.22,93.54h-25.68ZM866.33,390.05c-1.3.07-3.09.68-4.27-1.61-.72-1.4-3.22-1.94-4.12.96-.27.84-.41,2.1-1.56,2.16-1.29.07-.94-1.39-1.45-2.03-.65-.82-1.64-3-2.66-.16-.28.79-.82.68-1.4.38-.72-.4-1.25.03-1.23.65.03,1.94,2.66,2.46,2.5,4.78-.05.8,1.29.35,2.05-.02.88-.43,1.8-.54,2.5.44.19.26.52.44.78.66.77-3.22,3.99-1.33,5.32-2.62,1.2-1.15,1.53-.09,2.21.06,1.94.43,3.96,1.52,5.79,1.25,1.94-.29,3.9-.3,5.99-.95-3.46-1.34-6.31-4.19-10.45-3.94ZM901.41,350.81c-.08,3.18,1.28,5.16,4.12,6.3,1.71.69,2.9,2.11,3.53,3.82.55,1.47,1.46.61,2.24.67,1.75.12.7-.98.66-1.6-.19-2.3,0-4.58-1.13-6.88-1.58-3.22,1.74-1.17,2.54-1.96-.39-1-1.44-1.32-2.01-1.16-3.02.84-3.87-.69-3.54-3.3.14-1.21-.82-1.24-.98-.92-1.57,3.09-3.77,2.52-6.46.86.49,1.89,1.06,3.03,1.04,4.16ZM910.58,400.97c1.04.54,2,1.31,3.09,1.63,1.18.34,1.73,2.85,3.39,1.22,1.47-1.44,2.09-3.88,1.09-5.25-1.63-2.23-1.68-4.6-2.11-7.01-.18-1.03-.76-1.97-1.78-1.86-1.22.12-.75,1.28-.6,2.01.36,1.78-1.16,1.91-2.05,2.39-1.84.99-2.49,2.49-2.38,4.68-.54,1.18.36,1.69,1.34,2.2ZM948.32,332.61c-.19-2.01-2.66-1.81-4.11-.04-.85,1.06-1.11,3.8-3.79,1.76-.78-.59-1.78,1.48-2.5,2.51-.93,1.34-1.91,2.84-1.5,4.48.22.92,1.41,1.2,2.18.09,2.05-2.94,3.36-3,6.45-.88,1.73,1.18,2.46-.54,2.74-1.81.44-2.07.57-2.79,3.29-2.04,2.75.77.27-2.03.97-3.22-1.81,1.47-3.32,3.57-3.73-.85ZM968.27,391.21c-.47.34-1.36.51-1.3-.34.12-1.76-.15-2.59-2.02-1.68-1.57.77-.94,2.53-1.51,3.19-1.89,2.17.94,2.81.77,4.27-.1.84.31,1.92-1.14,1.23-1.78-.84-1.63.36-1.68,1.51-.1,1.84.83.93,1.68.79,5.2-.9,8.3-5.16,7.66-11.09-1.05.91-1.72,1.58-2.47,2.13ZM883.26,299.18c-2.01,0-3.04-1.66-4.05-3.13-.41-.6.76-2.57-1.15-1.7-.74.34-1.23,2-.46,3.18.32.48.77.92,1.23,1.24,2.71,1.89,5.19,3.9,3.44,7.81-.39.86.07,1.74.4,1.81,1.24.27.3-1.03.72-1.32.41-.27,1.12.84,1.54-.19,3.59,2.05,4.07.41,3.21-2.84.06-4.16-.72-4.87-4.88-4.87ZM1001.57,312.83c.83-1.47,2.02-2.82.8-4.75-1.38-2.18-2.2-4.66-2.88-7.28-1.77.63-3.41,2.67-5.22.18-.35-.49-1.39-.34-1.77.44-.28.57-.89,1.6.08,1.75,1.19.17.73,2.75,2.05,1.66,3.93-3.27,4.43,1.31,4.68,2.69.39,2.1,1.06,5.11-2.42,6.55,2.44,1.13,3.75.41,4.68-1.24ZM958.71,346.17c-.65-1.76,2.54-2.69.92-4.71-.49-.6-1.82-.88-1.23-2.23.49-1.12.39-2.3-.69-2.96-.5-.32-1.65-.28-1.74.55-.14,1.23-2.6,1.8-.94,3.51.39.4.78,1.06.1,1.49-.61.38-2.29,0-1.06,1.52.99,1.21,1.49,2.97,3.26,3.48.51-.24,1.4-.63,1.38-.66ZM895.69,394.04c.82.2.66.74.47,1.35-.33,1.03.32,1.21,1.09,1.26.84.05,1.32-.39,1.46-1.19.61-3.51-.9-4.73-4.72-5.02-1.92-.15-3.54,1.44-5.52.39,4.05,5.38,4.29,5.48,7.22,3.21ZM1015.84,419.94c-1.96.36-3.88.89-5.81,1.37.57,2.31-1.67,4.31-1.08,6.28.46,1.54,2.82,1.11,3.18-.31.63-2.46,2.45-3.34,4.13-4.54.49-.33,1.02-.62.85-1.42-.35-.51-.41-1.54-1.29-1.38ZM996.73,373.94c2.18,2.17,1.37,4.63.69,7.72,1.65-1.5,3.46.07,4.94-2.07.82-1.2,2.95-1.52,3-3.86-1.87.21-2.41,1.87-4.02,2.48.47-4.97.45-5-4.62-4.26ZM956.59,397.48c.72-1.97,1.44-4.66-2.07-5.21-.45-.07-1.04-.18-1.25-.51-.77-1.11-1.76-1.03-2.23-.08-.54,1.12.13,1.57,1.43,1.97,2.18.64,1.29,2.73,1.33,4.39.03,1.97-1.45,1.24-2.7,1.63,3.81,3.44,4.7-.02,5.48-2.18ZM888.64,443.39c1.63-.13.77-2.62,1.73-3.76,2.8-3.34-1.01-4.14-2.21-5.93-.41-.59-1.14-.34-1.57,0-.92.73,0,1.17.39,1.65,1.92,2.25,1.95,3.92-1.85,4.65,1.85.89,1.87,3.52,3.51,3.4ZM1008.78,434.7c.45-.44.86-.71.73-1.39-1.35,1.2-1.95-1.43-3.28-.64-.55.32-1.55.07-1.38,1.13.33,1.98.93,3.88-1.21,5.4-.34.24.92,1.71,1.91,1.9,1.05.21,2.18.04,4.35.04-3.59-2.34-3.23-4.43-1.11-6.43ZM999.18,322.48c.77-.29,1.56-.71.86-1.81-.53-.83-1.26-1.22-1.97-.4-.9,1.06-2.5-.67-3.36,1.28-1.35,3.06-.87,4.34,3.21,5.27-1.22-2.25-.78-3.58,1.26-4.34ZM992.78,396.15c.34,2.01-.19,3.97-1.28,5.9,2.41-2.72,6.44,4.43,8.47-1.86-5.14,2.95-4.06-3.65-7.19-4.04ZM1025.3,427.31c-.15,1.79,2.06,2.3,3.21,3.14.67.5.77-1.23.79-2.15.03-.99.75-1.58,1.35-2.32,1.05-1.28.5-2.35-1.33-3.16.11,3.07-3.8,2.09-4.01,4.49ZM998.14,438.86c.46-.95-.54-1.22-1.09-1.43-2.64-1.04-5.32-1.99-8-2.95-.47-.18-1.04-.07-.99.54.06.79.08,2.09,1.1,1.88,2.99-.62,4.64,1.1,6.18,3.23.12.17.4.23.62.34.98-.15,1.76-.76,2.16-1.61ZM1045.64,442.46c.61.49.9,0,1.31-.54.89-1.21,1.63-2.42,1.32-4.04-.12-.66-.3-1.41.69-1.69.39-.11,1.86.52,1-.5-.6-.71-.42-1.9-1.34-2.15-.9-.24-1.01.75-1.46,1.23-1.6,1.74-.9,4.61-2.9,6.15.46.51.86,1.11,1.39,1.53ZM840.93,350.87c1.49-.16,3.2-2.08,3.53-3.89.39-2.11-1.99-1.57-3.03-1.99-1.22-.47-1.97.76-1.69,2.63.41.86-.23,3.41,1.18,3.25ZM944.87,291.07c1.73.37.84,2.07,1.39,3.07.09.17-1.24,1.24-.02,1.75.49.2,1.55-.17,1.86-.62.38-.57,1.12-1.48.4-2.24-.85-.9-2.22-1.28-.55-2.92.63-.62-.83-1.68-1.75-1.14-.83.49-2.05-1.52-2.44.37.04.92.26,1.56,1.1,1.74ZM926.2,284.15c1.38.54,2.5-.72,2.56-2.08.06-1.35-.39-3.43-1.72-3.4-1.1.02-2.63.37-4.62,1.18,2.61.86,2.03,3.61,3.77,4.29ZM978.52,390.99c-2.94.54-5.27,1.66-5.92,4.98,2.33-1.18,6.93.62,5.92-4.98ZM980.27,454.18c.19,1.49,1.43,2.97,2.72,3.27.9.2,2.36-1.28,2.34-2.56-.04-1.43-1.36-2.04-2.58-2.12-1.2.09-2.66,0-2.48,1.41ZM892.79,341.61c.59,1.54,1.1,3.14,2.53,4.1.19.13.73.02.9-.16.44-.51.22-1.12,0-1.67-.75-1.77-1.88-3.36-1.92-5.43-1.85.65-2.06,1.69-1.51,3.16ZM1039.88,427.21c.16,1.34,1,1.62,2.18,1.46,2-.27,1.16-2.33,2.04-3.3-.67-.5-.25-1.95-1.6-1.89-1.23,1.01-2.88,1.68-2.63,3.74ZM1016.85,370.3c.25-.83,2.35-.91.97-2.36-1-1.04-2.36-.91-3.62-.82-1.2.09-1.28,1.54-.75,1.74,2,.73,1.12,2.92,2.44,4.48.42-1.35.7-2.19.96-3.04ZM1009.83,442c-1.32,1.48.24,3.31.33,5.01.04.68,2.04,1.67,3.19,1.74,1.08.06.79-1.09.08-1.6-.44-.32-1.37-.11-1.62-.48-1.23-1.78.57-2.64,1.57-4.34-1.43-.17-3.11-.83-3.55-.33ZM861.13,341.84c2,.06,3.09-1.72,4.63-2.52.55-.29-1.28-1.54-1.79-1.49-1.65.18-2.68,2.04-4.82,1.68.76,1.14.67,2.3,1.98,2.33ZM888.29,386.05c-2.36-2.2-4.31-1.94-6.54.69,2.55.95,4.48.84,6.54-.69ZM1015.73,352.15c.37.54.73.38,1.03-.15.4-.7,1.2-1.41.16-2.12-1.17-.8-2.42-1.49-3.85-2.35-.61,2.93,1.7,3.29,2.66,4.62ZM881.07,392.2c.72-.44,1.08-1.99.72-2.11-1.91-.64-3.88-.29-6.66.63,2.48.82,3.8,2.8,5.94,1.48ZM938.06,290.12c-.17.26.42,1.42,1.54,1.66,2.5.55,2.31-1.42,3.05-3.15-1.99-.06-3.61,0-4.59,1.49ZM894.38,347.31c.06-.06-.72-1.62-1.03-1.59-2.11.21-2.99,1.91-3.83,3.92,2.41.36,3.54-1.21,4.85-2.33ZM1040.28,407.13c-2.7.85-4.12-2.53-7.56-2.39,2.69,2.55,4.44,5.19,7.56,2.39ZM876.75,360.81c-1.37-.97-3.09-1.45-4.69-2.01-.74-.26-1.77.29-1.31.93,1.09,1.52,2.91,1.81,4.33,1.76,1.18.36,2.17-.32,1.67-.68ZM937.48,332.25c.42.42,1-.36.94-.57-.41-1.63,2.64-4.08-1.41-4.91-.97,1.94-1.2,3.84.46,5.48ZM984.9,401.03c-.76.22-1.58.38-1.35,1.57.49,2.47,2.41.79,3.69,1.25-.83-.97.13-3.54-2.34-2.82ZM908.12,394.92c.28-.36.86-.87.78-1.05-.57-1.25.08-3.33-1.96-3.59-1-.13-1.17.9-1.23,1.75-.47,2.1,3.12.61,2.42,2.89ZM854.68,438.42c.56.17,1.13-.12,1.46-.72.22-.41-.02-.61-.33-.8-.58-.33-1.11-.95-1.68.04-.17.28-.51.63-.77.64-2.37.1-2.37.08-1.11,2.73.11-1.72.8-2.39,2.43-1.89ZM903.5,441.75c1.41.13,1.61-1.23,1.93-2.16.49-1.39-.68-1.18-1.43-1.22-1.1-.06-1.98.26-2.09,1.5-.28,1.49.67,1.81,1.59,1.88ZM924.8,337.98c-.06-.66.25-1.92-1.13-1.59-.92.22-1.34,1.1-.95,1.93.58,1.25.16,2.89,2.1,4.32,0-1.91.08-3.29-.02-4.65ZM848.29,418.18c2.71.71,4.69-.85,7.1-2.5-3.38-.91-4.87,1.77-7.1,2.5ZM904.6,396.57c.58-.77.15-1.35-.44-1.79-.59-.43-1.06-.1-1.45.45-.57.81-.42,2.23-1.88,2.35,2.05,1.75,2.86.23,3.78-1.01ZM1026.18,416.79c1.49.28.45-1.64,1.48-1.71-.29-1.01-1.08-1.59-1.93-1.88-.36-.13-1.61-.44-1.09,1.42.27.47,0,1.9,1.55,2.17Z"/>
        <path class="cls-6" d="M1251,663.78l3.1-183.34c8.92-19.95.19-72.87,0-78.61-.05-1.5-4.48-1.87-4.93-1.87-.64,0-1.15.67-.57,1.52.38.56.54,1.45-.29,1.39-.96-.07-2.38.18-2.82-.79-.33-.74-1.89-1.84-.17-2.88.3-.17.1-.41-.06-.52-.16-.12-.45-.25-.58-.19-.63.31-1.43.84-1.18,1.51.5,1.34-.52,1.78-1.09,2.47-.34.42-.47,1.31-1.29,1.05-.68-.22-.3-.97-.53-1.38-.48-.88-.91-2.91-2.18-.47-.43.82-.86.2-1.27-.07-.44-.27-.93-.84-1.39-.27-2.05,2.53-1.66-.16-2.15-1.29-.3.89-.22,1.86-1.31,1.89-.08-.22-.14-.43-.22-.62-.57-1.45-2.34-2.78-.34-4.45.08-.06-.05-.59-.12-.6-1.49-.17-1.92-2.04-3.69-2.15-1.17-.07-1.33-.24-1.27.96.08,1.49-.63,1.36-1.48.6-.62-.55-1.32-1.07-1.77-1.75-.81-1.2-1.53-2.39-3.38-1.88.4,1.54,1.5,3.08.33,4.73,2.97,2.34-.69,1.45-1.09,2.05-.24.36-1.41.26-2.02-.74-.43-.71-1.26-1.51-2.46-1.34.22.84.44,1.62.65,2.4-1.1-1.32-4.16,1.29-3.89-2.45-1.06,2.01-3.17,2.15-4.42,4.03-.27-1.15-.46-2.19-1.53-2.22-1.2-.03.09,1.32-.86,1.75-.67.3.26,1.13.44,1.22,1.67.83,1.33,1.7.61,3.17-.86,1.77-2.36,1.77-3.35,1.22-1.72-.94-1.95.76-2.89,1.11-1.36.5-.2,1.01-.09,1.37.17.56.03,1.19-.35,1.08-1.16-.36-2.83-.05-3.22-1.68-.26-1.09-.52-1.52-1.5-.82-.62.44-2.26.22-1.05,1.95.63.89.81,2.35-1.18,1.42-.34-.16-.52.01-.81.13-.58.26-1.08,1.94-1.84.19-.32-.72-1.35-1.22-1.01-2.11.46-1.19-.19-1.29-.99-1.46-.64-.11-1.52,0-1.27-1.16.28-1.24-.1-1.54-1.34-1.34-.73.12-1.54.73-2.23-.48-.77-1.36-.38-4.89,1.02-6.24,1.41-1.36,1.28-2.78-.54-3.1-2.24-.41-1.64-2.16-1.72-3.33-.06-1.13,1.67-1.63,3.03-1.06.5.2.76-.17.85-.5.27-.98.72-2.07-.8-2.48-.99-.27-1.1-1.11-.34-1.44,1.9-.83.47-1.94.62-2.86.27-1.57.6-2.96,0-4.48,1.43-.56.22-1.14-.02-1.68-.42-.96-.97-.38-1.63-.26-.8.13-.92,1.6-2.28.85-.55-.3-2.23-.19-2.67-.62-.65-.63.52-1.47.97-2.2.16-.26.19-.62.29-.94-1.1,1.03-1.98,1.18-2.53-.44-.25-.75-.86-.44-1.33-.57-1.1-.34-1.31-1.51-1.7-2.32-.19-.41-.39-2.07.44-2.21,2.29-.34,1.47-2.24,1.21-3.03-.4-1.17.01-1.71.74-1.86,1.16-.23,1.08-.7.7-1.54-.62-1.39-.95-2.69.99-3.34,1.14-.38,1.79-1.08,1.64-2.54-.13-1.24-.45-1.46-1.69-1.72-1.53-.33-1.16-2.25-1-3.36.17-1.26,1.19.08,1.83-.08.22-.05.45,0,.55,0-.09-1.87.18-3.34,1.87-4.62,1.04-.79,2.22-1.13,3.26-1.54,1.84-.73,2.19-3.04,4.47-3.45,1.32-.24,1.78-.19,2.43.99.13-.97.61-1.57,1.13-1.9.88-.56,2.03-1.31,2.91-.21.93,1.16,2.48,1.32,3.26.08,1.24-1.98.61-5.77-1.2-7.14-.22-.17-.49-.59-.74-.3-2.52,2.86-1.37-1.63-2.58-1.35.13-.19.49-.7.1-.57-2.49.79-2.48-.59-2.11-2.37,0-.05-.09-.13-.13-.18-.82-.97-.33-1.32.64-1.5,1.51-.27,3.02-.57,4.49-.85-.09-.68-.42-.75-.79-.93-1.51-.76-1.04-2.31-1.04-3.52,0-1.01,1.67-.27,1.99-1.31,1.36.88,2.1-.4,2.95-.99,1.03-.74,2.03-1.24,3.63-.88-2.59-.86-1.9-2.61-1.08-3.78,1.01-1.44.89-2.65.19-4.18,1.55,1.08,2.55-.28,3.72-.43,2.25-.3,1.55-1.43,1.26-2.72-.18-.79-.15-1.63-.22-2.57,1.49.91,3.56-1.04,4.55,1.35.13.28.66-.43.87-.82.43-.8.84-1.6,1.35-2.55.24.33.39.48.46.65,1.18,2.78,1.06,2.36,3.72,1.55,1.49-.45.85-1.51,1.49-2.05,1.16-.99,1.2-1.75.55-3.02-.31-.6-.47-.56-.96-.18-1.5,1.13-2.75,2.21-5.05,1.06-1.91-.96-3.22-1.85-2.56-3.85.64-1.95,3.07-3.03,4.18-1.83.3.34.4,1.4.97.79.52-.56,1.32-.95,1.52-1.9.25-1.13-.75-.68-1.04-1.06-.31-.41-1.03-.44-.99-1.16.13-1.91.18-3.86,2.11-4.97-1.07-1.1-2-5.75-1.43-7.05.16-.35.44-.46.72-.28.52.34.92.19,1.05-.34.39-1.76,1.25-1.41,2.19-.53,1.4,1.28,2.76,2.57,4.8,1.23.11-.07.5.07.56.21.66,1.31,1.47.54,2.28.25-.62-1.1-2.19-.67-2.67-1.73,1.4-2.1,3.18-2.27,5.32-1.55.66.22,1.72-.94,1.98.71.04.25.42-.02.68-.19.42-.25.65-1.62,1.46-.44.6.87,1.12,1.78.35,2.85-.45.63-1.3,1.06-1.08,2.15.91.07,1.4-.41,1.68-1.16.51-1.39,1.86-1.79,2.9-1.76.89.01,1.35,1.51,2.36,2.03.67.34-.96.88-.26,1.01,1.42.27,2.42,2.53,4.24.98.17-.14.89.05,1,.27,1.02,2.03,2.32,1.28,3.48.31.65.53-.39,1.17.29,1.4.32.11.89-.24.72-.89-.3-1.19,1.06-1.05,1.4-1.92-.57-.62-1.68-.99-1.48-2.25.2-1.3,1.4-.86,2.08-1.22.92-.48,1.84.25,2.48,1.11.81,1.08,1.86.23,2.79.3.34.03.51-.04.31-.51-.86-2.03.84-3.07,2-3.34.92-.22,2.94.32,2.23,2.56,1.8-1.32,3.06-2.75,3.69-4.83.33-1.07,3.55-.62,4.14.47.73-1.57,1.89-2.64,3.17-2.49,1.42.16,1.76,1.98,3.07,2.43-1.17,1.17.9,2.34-.02,3.66-.29.43.23,1.46.39,2.22,1.03-.41,1.76,2.54,2.98.28.05-.1.44-.13.56-.04,2.11,1.72,4.39,3.29,5.21,6.27.81-.88,1.92-1.27,2.01-2.55-.51-.23-1.22.99-1.44-.05-.21-1.01-.62-2.35.3-3.12.91-.77,2.45-1.85,3.17-1.53,1.61.72,2.64-.56,3.98-.5,1.37.06,2.58-1.72,4.06-.74,2.61,1.73,2.64,3.11,1.94,6.42-.26,1.21-.93,1.66-1.44,2.41-.48.71-.6,2.07-.49,2.06,1.56-.04,2.04,3.01,4.01,1.23.2.89-.28,1.39-.11,2.17.37,1.87-1.44,2.3-2.65,2.75-.3.11-2.99.95-2.23-1.7.13-.46-.59-.34-.76-.51-1.17-1.18-2.56-.28-3.82-.51-1.27-.23-.81,1.72-1.93,1.81.11.86.83.97,1.43,1.23,1.61.7,3.14,1.69,5.05,1.29,1.15-.25,1.77.32,2.15,1.49.34,1.1,1.25,2.12-.38,2.9.95.85,2.08-.33,2.93.63-.31.34-.69.62-.87,1-.14.3-.19.83.3.96.3.08.56-.15.59-.52.21-2.63,2.65-1.58,3.91-2.49.8,1.39,2.95,1,3.44,3.04.33,1.4-.08,3.93,2.75,3.42.07,0,.29.36.26.51-.16.87-.74,1.85-.06,2.58,1.08,1.16,1.38-.52,2.08-.8.06-.03.17-.07.19-.05,1.45,1.86,2.16-.02,2.63-.77,1.5-2.39,3.06-1.66,4.83-.56-.37,1-2.16,1.53-1.27,2.42.74.75.56,1.13.26,1.66-1.04,1.86-.19,2.01,1.4,1.89,1.63-.11,2.71.53,2,2.49-.18.46-.1.81.23.99,1.62.85.74,2.19.18,2.82-.75.84-2.42,1.28-3.15.54-.58-.57-1.93-.94-1.6-2.72.45-2.44-2.59.28-3.08-1.6-.06-.25-1.11,0-.98.75.31,1.89-1.25,4.41,2.46,5.46-2,.3-2.48,1-2.23,2.35.1.52-.42,1.84-.76,1.39-1.19-1.56-2.88-.63-4.13-1.45,1.05,1.01-.38,3.23,1.89,3.38-.29.4-.42.58-.54.77-1.61,2.32-3.11,2.36-4.95.14-.5-.62-3.41-.72-3.61-.08-.49,1.45-1.71,2.23-2.92,2.43-.93.16-.07-1.61-.98-2.06-.13-.06-.06-.45-.19-.6-1.3-1.63-1.87.8-2.91.56-.21-.05-.67-.46-.48.04.38.99.7,2.1,1.97,2.51,1.08.35,1.88,1.22,2.2,2.39.39,1.4-1.45.41-1.47,1.48,1.4,1.44,2.68-1.29,4.32-.23.36.23.56-2.49,1.71-3.49.6,1.79,1.44,1.89,2.54.57,1.29-1.54,1.97-1.08,2.24.71.1.68.18,1.37.32,2.04.03.13.32.21.63.39v-1.95c2.6.61,2.77.48,2.29-1.99-.14-.73-.05-.93.72-1.27,1.32-.59,3.27.1,3.74-2.1,1.31,1.68,2.9,2.95,2.02,5.24-.13.33.5.61.83.47,1.38-.55,1.18.78,1.58,1.36.66.95-.24.91-.74,1.15-.44.2-.53.7-.16.9,2.82,1.45-.05,2.21-.49,2.29-1.33.26-1.35.82-.71,1.68.83,1.1.72,1.86-.87,2.49,1.24.17,1.87.41,1.62,1.75-.14.73.78,1.55.59,2.58-.03.16,1.41-.15,1.75.56.39.83-.21,1.26-.95,1.48.14.12.26.3.42.37,2.03.92,1.2,1.21-.2,1.98-1.07.58-3.18.13-3.01,2.55.04.46-.79,0-1.18-.38-.6-.59-2.69-.77-3.35-.39-.64.38-1.71.94-1.36,1.52.36.62.62,1.78,1.83,1.71,1.05-.04,1.31.35.65,1.39-.27.44-.25,1.31.18,1.96.85-.54,1.84-.94,1.26-2.26-.19-.42-.14-.91.3-.88,1.22.08,1.86-.07,1.05-1.48-.14-.25.09-.8.39-.61,1.1.68,2.77-.62,3.54,1.44.85,2.28,1.08,2.2,3.1,1.32.06-.02.15.02.22.02,2.57.08,4.26-1.67,6.06-3.23.42.7-.13,1.47.62,2,.77.54.27,1.66-.1,1.87-.46.27-.77.36-.56.89.22.55.71.44,1.17.35.6-.11,1.2-.91,1.83-.11,1.23,1.54,3,2.42,4.34,3.82.67.7,3.14,1.5.1,2.46-.21.06-.5.64-.44.72,1.13,1.53-1.51,1.97-.9,3.32-.27.08-.58.3-.8.22-2.14-.66-2.28,1.24-1.72,2.04,1.54,2.11,1.13,3.9-.04,5.85-.04.06.12.25.18.38.84-1.12,4.08-2.09,4.44-1.24.5,1.2-.85,2.07-1.39,3.1-.03.05.02.15.06.41.64.39,2.53-.25,1.78,1.77-.02.08.67.27.96-.36.62-1.36,1.88-2.09,3.34-3.62-.8,2.9,1.41,2.78,2.52,3.95-2.56.86-.53,4.02-3.32,5.17,1.94.13,2.62-1.28,4.14-1.41-.31.84-.28,1.58-.14,2.38.29,1.6-1.46,1.94-2.38,2.3-1.09.44-.7-.95-.75-1.56-.07-1.05-.9-1.14-1.55-1.47-.23-.12-.76-.11-.81,0-.31.74-.32,1.6.15,2.21,1.02,1.32.68,2.24-.59,3.02.64.76,2.2-.26,2.26.98.05,1.13,1.07,3.16-1.53,3.14-.18,0-.5.6-.53.94-.08,1.08-.65,1.18-1.36.71-1.36-.91-1.88-.5-1.88,1.07,0,1.23-.59,1.35-1.38.59-.97-.93-1.82-1.36-2.64.15-.5.91-1.26.84-1.37-.09-.17-1.26-.45-1.25-1.29-.55-.93.77-1.41.42-1.15-.72.12-.51.26-.91-.22-1.18-1.05-.58-1.77-1.28-1.95-2.63-.08-.61-1.03-.89-1.74-.81-1.01.11-.04.73-.18,1.11-.34.92-.82.49-1.43.41-1.77-.26-1.5-2.82-3.34-2.98-.44-.04-.34-1.49-1.17-.73-.53.48-1.01,1.23-.18,2.13.77.84.22,1.12-.73,1.4-.6.18-1.97.37-1.77.9.45,1.25-1.09,1.42-.93,2.35.82.55,2.39-.2,2.5,1.06.09,1.01-1.23,1.45-2.06,1.99-.48.29-1.23.52-1,1.34.7,2.55-.32,1.51-1.71,1.14-1.71-.45-1.1-1.97-1.94-3.06-1.42,1.94-2.88,3.71-5.32,4.07-.22.02-1,.21-.27,1.03,1.15,1.3.56,2.29-.93,3.2-1.09.66-3.01-.95-3.43,1.4-.05.28-.7-.22-1.06-.49-1.8-1.32-.66-3.19-.74-4.86-1.73.67-1.67,2.29-2.08,3.87-1-.71-1.81-1.68-2.76-.3-.25.36-.9-.18-.91-.66-.01-.76-.11-1.58-.89-1.59-.79-.02-.79.93-1.01,1.58-.1.27-.67,1.3-1.04.28-.87-2.4-1.53-.45-1.94.12-.87,1.24-1.24,1.02-1.81-.24-.62-1.33-.23-2.97-1.32-4.12,1.71-.41,1.33-2.36,1.23-3.01-.2-1.16-.35-3.87-2.97-2.09-.59.4-.94-.03-1.16-.62s-.75-.94-1.23-.55c-.7.56.11.82.38,1.21,1.14,1.6,2.71,2.86,3.49,4.74-.33-.02-.9-.58-.82-.33.42,1.35-.99,2.1-.86,3.22.21,1.8-.49,1.41-1.48.8-1.09-.68-2.09-.92-2.32.9-.07.48.24,1.16-.46,1.4-.81.26-.88-.86-1.37-.92-.9-.11-.43-1.88-1.7-1.35-.6.25-1.29,1.49-1.77.35-.27-.64-.45-1.84.48-2.74,1.28-1.23,2.3-1.98,3.66-.13.24.33.91,1.3,1.6.31.57-.83-.29-1.03-.66-1.41-.2-.21-.49-.37-.77-.47-1.91-.71-.95-3.15-2.47-4.24-.55-.39.44-1.03.9-1.52.52-.59-.13-.83-.68-1.03-1.71-.62-3.63-.68-5.11-1.97-.25-.21-.73-.3-1.06-.23-1.39.28-9.44,4.91-9.46,6.46-.06,4.2,3.75,62.43,3.75,62.43-5.42,30.71.03,194.04.14,198.3h-16.66ZM1220.16,363.73c-.85.04-2,.44-2.77-1.04-.46-.91-2.09-1.26-2.67.62-.17.54-.27,1.36-1.01,1.4-.84.04-.61-.9-.94-1.31-.42-.53-1.07-1.95-1.73-.11-.18.51-.53.44-.9.24-.47-.26-.81.02-.8.42.02,1.26,1.72,1.6,1.62,3.1-.03.51.84.22,1.33-.02.57-.28,1.17-.36,1.62.28.13.17.34.28.51.43.5-2.09,2.59-.86,3.45-1.7.78-.75.99-.06,1.43.03,1.26.28,2.56.99,3.76.81,1.26-.19,2.53-.19,3.89-.62-2.25-.87-4.09-2.71-6.78-2.56ZM1242.92,338.27c-.05,2.06.84,3.35,2.68,4.09,1.11.45,1.88,1.37,2.29,2.48.36.96.94.39,1.45.44,1.13.08.45-.64.43-1.03-.13-1.5,0-2.97-.74-4.46-1.02-2.09,1.13-.76,1.65-1.27-.25-.65-.93-.86-1.3-.76-1.96.54-2.51-.44-2.3-2.14.09-.78-.53-.81-.64-.6-1.02,2-2.45,1.63-4.19.56.32,1.22.69,1.97.67,2.7ZM1248.87,370.82c.67.35,1.3.85,2,1.06.76.22,1.12,1.85,2.2.79.95-.94,1.36-2.52.71-3.41-1.06-1.45-1.09-2.98-1.37-4.55-.11-.67-.5-1.28-1.15-1.21-.8.08-.49.83-.39,1.3.24,1.16-.75,1.24-1.33,1.55-1.19.65-1.61,1.62-1.54,3.03-.35.77.23,1.1.87,1.42ZM1273.36,326.46c-.13-1.3-1.72-1.17-2.67-.02-.55.68-.72,2.47-2.46,1.14-.5-.38-1.16.96-1.62,1.63-.6.87-1.24,1.84-.97,2.91.14.6.91.78,1.41.06,1.33-1.91,2.18-1.95,4.19-.57,1.12.77,1.6-.35,1.78-1.18.29-1.34.37-1.81,2.13-1.32,1.79.5.18-1.32.63-2.09-1.17.96-2.15,2.32-2.42-.55ZM1286.31,364.49c-.3.22-.88.33-.84-.22.08-1.14-.1-1.68-1.31-1.09-1.02.5-.61,1.64-.98,2.07-1.23,1.41.61,1.83.5,2.77-.07.55.2,1.25-.74.8-1.16-.54-1.06.24-1.09.98-.06,1.19.54.6,1.09.51,3.38-.59,5.39-3.35,4.97-7.2-.68.59-1.11,1.02-1.6,1.38ZM1231.14,304.77c-1.31,0-1.98-1.08-2.63-2.03-.26-.39.49-1.67-.74-1.1-.48.22-.8,1.29-.3,2.06.21.31.5.6.8.81,1.76,1.23,3.37,2.53,2.23,5.06-.25.56.05,1.13.26,1.18.8.18.19-.67.46-.86.26-.18.73.54,1-.12,2.33,1.33,2.64.26,2.08-1.84.04-2.7-.47-3.16-3.17-3.16ZM1307.92,313.63c.54-.95,1.31-1.83.52-3.08-.89-1.42-1.43-3.02-1.87-4.73-1.14.41-2.22,1.74-3.39.12-.22-.32-.9-.22-1.15.29-.18.37-.58,1.04.05,1.14.77.11.47,1.78,1.33,1.07,2.55-2.12,2.87.85,3.04,1.75.25,1.36.69,3.31-1.57,4.25,1.58.74,2.43.27,3.04-.8ZM1280.11,335.26c-.42-1.14,1.65-1.74.6-3.06-.32-.39-1.18-.57-.8-1.44.32-.73.25-1.49-.45-1.92-.32-.21-1.07-.19-1.13.36-.1.8-1.69,1.17-.61,2.27.26.26.51.69.07.97-.4.25-1.49,0-.69.99.64.79.97,1.93,2.12,2.26.33-.16.91-.41.89-.43ZM1239.21,366.32c.53.13.43.48.3.88-.22.67.21.78.71.82.54.04.86-.25.94-.77.39-2.28-.58-3.07-3.06-3.26-1.25-.1-2.3.94-3.58.26,2.63,3.49,2.78,3.55,4.69,2.08ZM1317.18,383.13c-1.27.24-2.52.59-3.77.89.37,1.5-1.08,2.8-.7,4.08.3,1,1.83.72,2.07-.2.41-1.6,1.59-2.17,2.68-2.95.32-.22.66-.41.56-.93-.22-.33-.27-1-.84-.9ZM1304.77,353.28c1.42,1.4.89,3,.45,5.01,1.07-.97,2.25.04,3.21-1.35.53-.78,1.91-.99,1.95-2.51-1.21.14-1.56,1.21-2.61,1.61.31-3.22.29-3.24-2.99-2.77ZM1278.73,368.56c.47-1.28.94-3.03-1.34-3.38-.29-.04-.67-.12-.81-.33-.5-.72-1.14-.67-1.45-.05-.35.72.09,1.02.93,1.28,1.41.41.84,1.77.86,2.85.02,1.28-.94.8-1.75,1.06,2.47,2.23,3.05-.01,3.56-1.41ZM1234.64,398.35c1.05-.09.5-1.7,1.12-2.44,1.82-2.17-.66-2.69-1.44-3.85-.26-.38-.74-.22-1.02,0-.6.47,0,.76.25,1.07,1.25,1.46,1.27,2.54-1.2,3.02,1.2.57,1.21,2.28,2.28,2.21ZM1312.59,392.71c.29-.28.56-.46.47-.9-.87.78-1.27-.93-2.13-.42-.35.21-1.01.05-.9.73.21,1.29.6,2.52-.78,3.5-.22.15.6,1.11,1.24,1.23.68.13,1.41.03,2.82.03-2.33-1.52-2.09-2.87-.72-4.18ZM1306.37,319.89c.5-.19,1.01-.46.56-1.17-.34-.54-.82-.79-1.28-.26-.59.69-1.62-.44-2.18.83-.88,1.98-.56,2.81,2.08,3.42-.79-1.46-.51-2.32.82-2.82ZM1302.21,367.69c.22,1.3-.12,2.58-.83,3.83,1.56-1.76,4.18,2.88,5.5-1.21-3.33,1.92-2.64-2.36-4.67-2.62ZM1323.31,387.91c-.1,1.16,1.33,1.49,2.08,2.04.44.32.5-.8.51-1.4.02-.63.49-1.03.87-1.5.68-.84.33-1.53-.86-2.05.07,1.99-2.47,1.35-2.6,2.91ZM1305.69,395.41c.3-.61-.35-.79-.7-.93-1.71-.68-3.45-1.29-5.19-1.92-.3-.11-.67-.04-.64.35.04.51.05,1.36.72,1.23,1.94-.41,3.01.71,4.01,2.1.08.11.26.15.41.21.64-.09,1.14-.49,1.4-1.05ZM1336.51,397.74c.39.32.58,0,.85-.35.58-.79,1.05-1.57.85-2.62-.08-.43-.19-.91.45-1.09.26-.08,1.21.33.65-.33-.39-.46-.27-1.23-.87-1.39-.58-.16-.65.48-.95.8-1.04,1.12-.59,2.99-1.88,3.99.3.33.56.72.9.99ZM1203.68,338.31c.97-.11,2.08-1.35,2.29-2.52.26-1.37-1.29-1.02-1.96-1.29-.79-.3-1.28.49-1.09,1.71.27.56-.15,2.21.77,2.11ZM1271.12,299.51c1.12.24.55,1.35.9,1.99.05.11-.8.8-.02,1.13.32.13,1.01-.11,1.21-.41.25-.37.73-.96.26-1.45-.56-.58-1.44-.83-.36-1.89.41-.41-.54-1.09-1.13-.74-.54.31-1.33-.99-1.58.24.03.59.17,1.01.72,1.13ZM1259.01,295.02c.9.35,1.63-.47,1.66-1.35.04-.88-.25-2.23-1.11-2.21-.71.02-1.71.24-3,.77,1.69.56,1.32,2.34,2.45,2.78ZM1292.96,364.34c-1.91.35-3.42,1.08-3.84,3.23,1.51-.76,4.5.4,3.84-3.23ZM1294.1,405.35c.12.97.93,1.93,1.76,2.12.58.13,1.53-.83,1.52-1.66-.03-.93-.89-1.32-1.67-1.37-.78.06-1.72,0-1.61.91ZM1237.33,332.3c.38,1,.72,2.03,1.64,2.66.13.08.47.02.59-.11.29-.33.14-.73,0-1.08-.48-1.15-1.22-2.18-1.24-3.52-1.2.42-1.34,1.09-.98,2.05ZM1332.77,387.85c.1.87.65,1.05,1.41.94,1.3-.17.76-1.51,1.33-2.14-.43-.32-.16-1.26-1.04-1.23-.8.66-1.87,1.09-1.71,2.43ZM1317.83,350.92c.16-.54,1.53-.59.63-1.53-.65-.67-1.53-.59-2.35-.53-.78.06-.83,1-.49,1.13,1.3.47.73,1.89,1.59,2.91.27-.88.45-1.42.62-1.97ZM1313.27,397.44c-.86.96.15,2.15.21,3.25.03.44,1.32,1.08,2.07,1.13.7.04.52-.71.05-1.04-.28-.21-.89-.07-1.05-.31-.8-1.16.37-1.71,1.02-2.82-.93-.11-2.02-.54-2.3-.21ZM1216.79,332.45c1.3.04,2-1.11,3.01-1.63.36-.19-.83-1-1.16-.97-1.07.11-1.74,1.32-3.13,1.09.49.74.44,1.49,1.28,1.51ZM1234.41,361.14c-1.53-1.43-2.8-1.26-4.25.45,1.65.62,2.91.54,4.25-.45ZM1317.1,339.14c.24.35.47.24.67-.1.26-.45.78-.92.11-1.38-.76-.52-1.57-.96-2.5-1.52-.4,1.9,1.1,2.14,1.72,3ZM1229.72,365.13c.47-.28.7-1.29.47-1.37-1.24-.41-2.51-.19-4.32.41,1.61.53,2.47,1.82,3.85.96ZM1266.71,298.89c-.11.17.27.92,1,1.08,1.63.36,1.5-.92,1.98-2.04-1.29-.04-2.34,0-2.98.96ZM1238.36,336s-.47-1.05-.67-1.03c-1.37.14-1.94,1.24-2.48,2.54,1.56.23,2.29-.79,3.15-1.51ZM1333.03,374.82c-1.75.55-2.67-1.64-4.91-1.55,1.75,1.65,2.88,3.37,4.91,1.55ZM1226.92,344.76c-.89-.63-2-.94-3.05-1.31-.48-.17-1.15.19-.85.6.71.99,1.89,1.18,2.81,1.14.77.23,1.41-.21,1.09-.44ZM1266.33,326.23c.27.27.65-.23.61-.37-.26-1.05,1.72-2.65-.91-3.19-.62,1.26-.78,2.49.3,3.56ZM1297.1,370.86c-.49.14-1.03.25-.87,1.02.32,1.6,1.56.51,2.39.81-.54-.63.08-2.3-1.52-1.83ZM1247.28,366.89c.18-.23.56-.56.5-.68-.37-.81.05-2.16-1.27-2.33-.65-.08-.76.58-.8,1.13-.3,1.37,2.02.4,1.57,1.88ZM1212.6,395.12c.36.11.73-.08.94-.47.14-.26,0-.39-.21-.52-.37-.21-.72-.62-1.09.03-.11.19-.33.41-.5.42-1.54.07-1.54.05-.72,1.77.07-1.12.52-1.55,1.58-1.23ZM1244.28,397.28c.92.08,1.04-.8,1.26-1.4.31-.9-.44-.77-.93-.79-.72-.04-1.28.16-1.36.97-.18.97.43,1.18,1.03,1.23ZM1258.1,329.95c-.04-.43.17-1.25-.73-1.03-.6.15-.87.72-.61,1.25.37.81.1,1.87,1.36,2.8,0-1.24.05-2.14-.02-3.02ZM1208.45,381.99c1.76.45,3.04-.55,4.6-1.63-2.19-.59-3.16,1.15-4.6,1.63ZM1244.99,367.96c.38-.5.1-.88-.29-1.16-.38-.28-.69-.07-.94.28-.37.53-.27,1.45-1.22,1.53,1.33,1.13,1.86.15,2.45-.65ZM1323.89,381.08c.97.18.29-1.06.96-1.11-.18-.66-.7-1.03-1.25-1.22-.23-.08-1.04-.28-.71.93.18.31,0,1.23,1,1.41Z"/>
        <polygon class="cls-6" points="767.42 347.63 693.07 374.26 693.07 647.15 841.78 647.15 841.78 374.26 767.42 347.63"/>
        <polygon class="cls-6" points="637.34 212.71 562.99 239.34 562.99 682.94 711.7 682.94 711.7 239.34 637.34 212.71"/>
      </g>
      <rect class="cls-1" y="596.92" width="1366.49" height="101.03"/>
      <g class="cls-10">
        <g>
          <path class="cls-1" d="M750.93,443.89v151.38h45.9v-151.38h-45.9Z"/>
          <g>
            <rect class="cls-1" x="786.77" y="441.31" width="6.08" height="149.61"/>
            <rect class="cls-1" x="754.91" y="441.31" width="6.08" height="149.61"/>
          </g>
          <path class="cls-1" d="M836.5,443.89v151.38h45.9v-151.38h-45.9Z"/>
          <rect class="cls-1" x="872.34" y="441.31" width="6.08" height="149.61"/>
          <rect class="cls-1" x="851.11" y="441.31" width="6.08" height="8.18"/>
          <rect class="cls-1" x="861.73" y="441.31" width="6.08" height="8.18"/>
          <rect class="cls-1" x="765.53" y="441.31" width="6.07" height="8.18"/>
          <rect class="cls-1" x="776.15" y="441.31" width="6.07" height="8.18"/>
          <rect class="cls-1" x="824.25" y="492.26" width="6.08" height="8.17"/>
          <rect class="cls-1" x="803.01" y="492.26" width="6.08" height="8.17"/>
          <rect class="cls-1" x="813.63" y="492.26" width="6.08" height="8.17"/>
          <rect class="cls-1" x="840.49" y="441.31" width="6.07" height="149.61"/>
          <path class="cls-1" d="M793.25,496.45v96.89h46.84v-96.89h-46.84Z"/>
          <rect class="cls-1" x="737.29" y="597.04" width="158.76" height="5.49"/>
          <rect class="cls-1" x="745.54" y="593.34" width="142.25" height="5.49"/>
          <rect class="cls-1" x="749.31" y="589.79" width="134.71" height="5.48"/>
        </g>
        <g>
          <g>
            <g>
              <polygon class="cls-1" points="586.09 331.25 579.14 331.25 572.19 331.25 565.7 596.92 579.14 596.92 592.57 596.92 586.09 331.25"/>
              <rect class="cls-1" x="548.34" y="313.55" width="61.6" height="17.7"/>
              <rect class="cls-1" x="561.54" y="293" width="35.2" height="24.37"/>
              <rect class="cls-1" x="575.2" y="253.33" width="7.87" height="44.45"/>
              <rect class="cls-1" x="577.17" y="193.13" width="3.94" height="64.98"/>
              <rect class="cls-1" x="577.35" y="197.67" width="21.54" height="18.16"/>
            </g>
            <g>
              <path class="cls-1" d="M663.28,596.51h-85.92c-1.05,0-1.91-.88-1.91-1.96v-224.93l3.75-101.03c.03-.7.42-1.33,1.02-1.66.6-.31,1.33-.29,1.91.08,1.13.74,112.71,76.26,83.04,327.77-.12.99-.93,1.72-1.89,1.72ZM579.26,592.59h82.32c26.06-225.18-61.7-306.69-78.71-320.19l-3.61,97.29v222.9Z"/>
              <path class="cls-1" d="M663.28,596.51h-76.66c-1.06,0-1.91-.88-1.91-1.96s.85-1.96,1.91-1.96h69.34l-75.38-43.35c-.76-.44-1.13-1.34-.91-2.21.21-.86.98-1.47,1.84-1.47h77.37l-81.43-39.5c-.8-.4-1.24-1.31-1.04-2.2.19-.89.97-1.52,1.86-1.52h81.21l-82.91-38.06c-.83-.38-1.28-1.3-1.09-2.2.19-.9.97-1.55,1.87-1.55h80.48l-76.2-36.92c-.81-.39-1.24-1.3-1.05-2.2.19-.89.97-1.52,1.87-1.52h70.44l-76.39-39.18c-.78-.4-1.21-1.31-1-2.2.2-.88.97-1.51,1.85-1.51h66.18l-65.04-37.98c-.76-.44-1.12-1.34-.9-2.2.22-.86.98-1.46,1.84-1.46h55.4c1.05,0,1.91.87,1.91,1.96s-.85,1.95-1.91,1.95h-48.19l65.04,37.98c.76.44,1.13,1.34.91,2.2-.23.86-.98,1.46-1.85,1.46h-65.31l76.39,39.18c.79.41,1.2,1.32,1,2.21-.2.89-.97,1.51-1.86,1.51h-70.01l76.2,36.91c.81.39,1.24,1.3,1.05,2.2-.19.9-.97,1.53-1.86,1.53h-80.06l82.91,38.06c.82.38,1.28,1.29,1.09,2.2-.19.9-.97,1.55-1.87,1.55h-81.64l81.42,39.5c.81.39,1.24,1.3,1.05,2.2-.2.89-.97,1.53-1.86,1.53h-78.56l75.38,43.36c.76.44,1.13,1.34.92,2.2-.22.86-.98,1.47-1.85,1.47Z"/>
              <path class="cls-1" d="M659.16,596.51h-76.65c-.87,0-1.63-.6-1.85-1.47-.22-.86.15-1.77.91-2.2l75.37-43.36h-78.55c-.9,0-1.67-.64-1.87-1.53-.19-.9.25-1.81,1.05-2.2l81.42-39.5h-81.64c-.89,0-1.67-.65-1.86-1.54-.19-.9.25-1.81,1.07-2.2l81.04-38.06h-78.17c-.89,0-1.66-.63-1.86-1.51-.2-.9.23-1.8,1.03-2.21l74.09-36.92h-74.4c-.86,0-1.62-.6-1.85-1.46-.22-.85.15-1.76.9-2.2l66.3-39.24h-66.27c-.83,0-1.56-.55-1.82-1.36-.25-.82.04-1.7.72-2.2l52.57-38.09h-17.88c-1.06,0-1.91-.88-1.91-1.95s.86-1.96,1.91-1.96h23.89c.83,0,1.56.55,1.82,1.36.25.82-.04,1.7-.72,2.19l-52.57,38.09h67.38c.86,0,1.62.6,1.85,1.45.22.85-.14,1.77-.89,2.2l-66.3,39.24h75.57c.89,0,1.66.63,1.86,1.51.2.89-.22,1.8-1.02,2.2l-74.09,36.93h78.63c.9,0,1.67.64,1.86,1.54.19.9-.25,1.81-1.06,2.19l-81.04,38.07h81.39c.89,0,1.67.63,1.86,1.52.19.89-.24,1.8-1.05,2.2l-81.42,39.5h77.36c.87,0,1.63.61,1.85,1.47.21.86-.15,1.77-.92,2.21l-75.37,43.35h69.34c1.05,0,1.91.88,1.91,1.96s-.86,1.96-1.91,1.96Z"/>
            </g>
          </g>
          <polygon class="cls-1" points="588.73 596.92 516.21 596.92 516.21 248.79 588.73 277.7 588.73 596.92"/>
        </g>
        <g>
          <rect class="cls-1" x="101.29" y="241.83" width="15.16" height="389.35"/>
          <rect class="cls-1" x="39" y="241.83" width="15.15" height="389.35"/>
          <rect class="cls-1" x="48.83" y="271.46" width="60.04" height="14.97"/>
          <path class="cls-1" d="M226.17,518.39c-46.4,0-138.83-35.56-177-177.4l3.24-.92c39.49,146.73,137.24,178.12,179.84,174.66-114.36-27.28-119.97-184.61-120.01-186.24l3.37-.09c.04,1.64,5.89,164.57,126.54,184.82l7.96,1.34-7.82,2.04c-4.35,1.15-9.81,1.8-16.11,1.8Z"/>
          <path class="cls-1" d="M-85.59,546.63l-.83-3.33c131.95-48.29,126.72-219.6,126.65-221.31l3.37-.15c.06,1.66,4.87,157.55-108.6,215.85,41.31-13.93,128.74-59.84,167.58-204.15l3.25.92c-49.41,183.57-177.02,209.79-191.42,212.18Z"/>
          <g class="cls-8">
            <g>
              <rect class="cls-1" x="209.67" y="339.96" width="3.37" height="174.44"/>
              <rect class="cls-1" x="201.06" y="339.96" width="3.37" height="174.44"/>
              <rect class="cls-1" x="192.43" y="339.96" width="3.37" height="174.44"/>
              <rect class="cls-1" x="183.81" y="339.06" width="3.37" height="174.44"/>
              <rect class="cls-1" x="175.19" y="339.06" width="3.37" height="174.44"/>
              <rect class="cls-1" x="166.57" y="337.05" width="3.36" height="174.44"/>
              <rect class="cls-1" x="157.94" y="335.23" width="3.37" height="174.44"/>
              <rect class="cls-1" x="149.32" y="331.58" width="3.36" height="174.44"/>
              <rect class="cls-1" x="140.7" y="326.98" width="3.37" height="174.44"/>
              <rect class="cls-1" x="132.08" y="324.1" width="3.37" height="174.45"/>
              <rect class="cls-1" x="123.46" y="320.36" width="3.37" height="174.44"/>
              <rect class="cls-1" x="218.3" y="339.96" width="3.37" height="174.44"/>
            </g>
          </g>
          <rect class="cls-1" x="367.29" y="241.83" width="15.15" height="389.35"/>
          <rect class="cls-1" x="429.58" y="241.83" width="15.15" height="389.35"/>
          <rect class="cls-1" x="374.86" y="271.46" width="60.05" height="14.97"/>
          <path class="cls-1" d="M241.87,514.92c-194.73,0-332.78,31.08-332.78,31.08,48.25-10.36,241.87-19.57,332.78-19.57s284.51,9.21,332.78,19.57c0,0-138.05-31.08-332.78-31.08Z"/>
          <path class="cls-1" d="M257.47,518.38c-6.27,0-11.68-.66-16.02-1.79l-7.82-2.04,7.97-1.34c120.7-20.25,127.31-183.18,127.36-184.83l3.37.12c-.05,1.62-6.46,158.93-120.83,186.23,42.45,3.4,139.94-28.03,179.4-174.66l3.25.92c-38.17,141.82-130.42,177.38-176.68,177.39Z"/>
          <path class="cls-1" d="M569.3,546.63c-23.6-4.34-143.69-34.94-191.39-212.18l3.24-.92c38.8,144.15,125.74,190.14,168.31,204.31-125.17-63.42-109.5-214.54-109.32-216.13l3.34.4c-.18,1.65-17.1,165.29,126.7,221.2l-.88,3.32Z"/>
          <g>
            <rect class="cls-1" x="48.83" y="418.8" width="60.04" height="14.96"/>
            <rect class="cls-1" x="46.58" y="508.6" width="60.05" height="14.96"/>
            <g>
              <rect class="cls-1" x="59.2" y="418.8" width="3.37" height="107.64"/>
              <rect class="cls-1" x="67.73" y="418.8" width="3.36" height="107.64"/>
              <rect class="cls-1" x="76.25" y="418.8" width="3.37" height="107.64"/>
              <rect class="cls-1" x="84.77" y="418.8" width="3.37" height="107.64"/>
              <rect class="cls-1" x="93.3" y="418.8" width="3.36" height="107.64"/>
            </g>
            <rect class="cls-1" x="374.86" y="418.8" width="60.05" height="14.96"/>
            <rect class="cls-1" x="377.11" y="511.47" width="60.05" height="14.97"/>
            <g>
              <rect class="cls-1" x="421.16" y="418.8" width="3.37" height="107.64"/>
              <rect class="cls-1" x="412.64" y="418.8" width="3.36" height="107.64"/>
              <rect class="cls-1" x="404.12" y="418.8" width="3.36" height="107.64"/>
              <rect class="cls-1" x="395.59" y="418.8" width="3.37" height="107.64"/>
              <rect class="cls-1" x="387.07" y="418.8" width="3.37" height="107.64"/>
            </g>
          </g>
          <g class="cls-7">
            <g>
              <rect class="cls-1" x="270.69" y="339.96" width="3.37" height="174.44"/>
              <rect class="cls-1" x="279.31" y="339.96" width="3.37" height="174.44"/>
              <rect class="cls-1" x="287.93" y="339.96" width="3.37" height="174.44"/>
              <rect class="cls-1" x="296.55" y="339.06" width="3.37" height="174.44"/>
              <rect class="cls-1" x="305.18" y="339.06" width="3.37" height="174.44"/>
              <rect class="cls-1" x="313.8" y="337.05" width="3.36" height="174.44"/>
              <rect class="cls-1" x="322.42" y="335.23" width="3.37" height="174.44"/>
              <rect class="cls-1" x="331.04" y="331.58" width="3.37" height="174.44"/>
              <rect class="cls-1" x="339.66" y="326.98" width="3.37" height="174.44"/>
              <rect class="cls-1" x="348.29" y="324.1" width="3.37" height="174.45"/>
              <rect class="cls-1" x="356.91" y="320.36" width="3.37" height="174.44"/>
              <rect class="cls-1" x="262.07" y="339.96" width="3.37" height="174.44"/>
            </g>
          </g>
        </g>
        <g>
          <rect class="cls-1" x="928.81" y="493.55" width="289.56" height="108.98"/>
          <rect class="cls-1" x="1022.65" y="490.33" width="101.89" height="6.1"/>
          <g>
            <g>
              <rect class="cls-1" x="1025.47" y="451.56" width="20.66" height="42.38"/>
              <rect class="cls-1" x="1024.27" y="471.05" width="23.06" height="2.15"/>
              <rect class="cls-1" x="1024.27" y="451.56" width="23.06" height="2.15"/>
              <rect class="cls-1" x="1025.8" y="432.86" width="20" height="2.15"/>
              <rect class="cls-1" x="1026.63" y="433.93" width="18.35" height="27.59"/>
              <g>
                <polygon class="cls-1" points="1029.16 428.08 1028.54 428.08 1028.54 427.2 1027.36 427.2 1027.36 428.08 1026.74 428.08 1026.74 429.04 1027.36 429.04 1027.36 433.93 1028.54 433.93 1028.54 429.04 1029.16 429.04 1029.16 428.08"/>
                <polygon class="cls-1" points="1044.86 428.08 1044.24 428.08 1044.24 427.2 1043.06 427.2 1043.06 428.08 1042.44 428.08 1042.44 429.04 1043.06 429.04 1043.06 433.93 1044.24 433.93 1044.24 429.04 1044.86 429.04 1044.86 428.08"/>
              </g>
              <path class="cls-1" d="M1039.95,420.39c-2.22-2.12-3.28-2.86-3.28-4.96h-1.74c0,2.1-1.06,2.84-3.29,4.96-2.03,1.94-.49,11.38-1.55,12.46l5.7.7,5.7-.7c-1.05-1.08.48-10.53-1.55-12.46Z"/>
              <rect class="cls-1" x="1035.31" y="410.22" width=".97" height="7.56"/>
              <path class="cls-1" d="M1037.13,413.31c0,.76-.6,1.36-1.33,1.36s-1.34-.61-1.34-1.36.6-1.37,1.34-1.37,1.33.61,1.33,1.37Z"/>
            </g>
            <g>
              <rect class="cls-1" x="1101.05" y="451.56" width="20.66" height="42.38"/>
              <rect class="cls-1" x="1099.85" y="471.05" width="23.06" height="2.15"/>
              <rect class="cls-1" x="1099.85" y="451.56" width="23.06" height="2.15"/>
              <rect class="cls-1" x="1101.38" y="432.86" width="20" height="2.15"/>
              <rect class="cls-1" x="1102.21" y="433.93" width="18.35" height="27.59"/>
              <g>
                <polygon class="cls-1" points="1104.74 428.08 1104.12 428.08 1104.12 427.2 1102.94 427.2 1102.94 428.08 1102.33 428.08 1102.33 429.04 1102.94 429.04 1102.94 433.93 1104.12 433.93 1104.12 429.04 1104.74 429.04 1104.74 428.08"/>
                <polygon class="cls-1" points="1120.44 428.08 1119.82 428.08 1119.82 427.2 1118.64 427.2 1118.64 428.08 1118.02 428.08 1118.02 429.04 1118.64 429.04 1118.64 433.93 1119.82 433.93 1119.82 429.04 1120.44 429.04 1120.44 428.08"/>
              </g>
              <path class="cls-1" d="M1115.53,420.39c-2.23-2.12-3.29-2.86-3.29-4.96h-1.73c0,2.1-1.05,2.84-3.28,4.96-2.03,1.94-.49,11.38-1.55,12.46l5.7.7,5.7-.7c-1.06-1.08.48-10.53-1.55-12.46Z"/>
              <rect class="cls-1" x="1110.89" y="410.22" width=".97" height="7.56"/>
              <path class="cls-1" d="M1112.71,413.31c0,.76-.6,1.36-1.33,1.36s-1.33-.61-1.33-1.36.6-1.37,1.33-1.37,1.33.61,1.33,1.37Z"/>
            </g>
          </g>
          <polygon class="cls-1" points="1049.75 490.84 1073.14 477.7 1097.43 490.84 1049.75 490.84"/>
          <g>
            <g>
              <rect class="cls-1" x="1051.2" y="478.44" width="1.73" height="13.6"/>
              <rect class="cls-1" x="1050.48" y="481.11" width="3.18" height=".97"/>
              <rect class="cls-1" x="1050.48" y="484.76" width="3.18" height=".97"/>
            </g>
            <g>
              <rect class="cls-1" x="1094.25" y="478.44" width="1.73" height="13.6"/>
              <rect class="cls-1" x="1093.53" y="481.11" width="3.18" height=".97"/>
              <rect class="cls-1" x="1093.53" y="484.76" width="3.18" height=".97"/>
            </g>
          </g>
          <g>
            <g>
              <rect class="cls-1" x="894.21" y="488.12" width="36.69" height="114.41"/>
              <rect class="cls-1" x="893.18" y="486.68" width="38.76" height="2.12"/>
              <rect class="cls-1" x="895.82" y="484.99" width="33.47" height="2.12"/>
              <path class="cls-1" d="M912.56,469.56c0,7.13-15.79,3.75-15.79,15.86l15.79,4.22,15.78-4.22c0-12.11-15.78-8.73-15.78-15.86Z"/>
              <rect class="cls-1" x="911.36" y="465.83" width="2.4" height="7.72"/>
              <polygon class="cls-1" points="911.3 465.83 910.06 464.27 912.5 461.76 915.06 464.27 913.69 465.83 912.7 467.27 911.3 465.83"/>
              <rect class="cls-1" x="912" y="457.44" width="1.11" height="5.85"/>
            </g>
            <g>
              <rect class="cls-1" x="956.3" y="488.12" width="36.69" height="114.41"/>
              <rect class="cls-1" x="957.87" y="486.01" width="33.55" height="3.22"/>
              <g>
                <path class="cls-1" d="M963.28,479.13c-1.22-1.16-1.8-1.57-1.8-2.72h-.96c0,1.15-.58,1.56-1.8,2.72-1.11,1.06-.27,6.25-.85,6.85l3.13.38,3.13-.38c-.58-.6.26-5.78-.85-6.85Z"/>
                <rect class="cls-1" x="960.73" y="473.55" width=".54" height="4.15"/>
                <path class="cls-1" d="M961.73,475.24c0,.42-.33.75-.73.75s-.73-.33-.73-.75.33-.75.73-.75.73.34.73.75Z"/>
                <path class="cls-1" d="M990.56,479.13c-1.22-1.16-1.8-1.57-1.8-2.72h-.95c0,1.15-.58,1.56-1.8,2.72-1.11,1.06-.27,6.25-.85,6.85l3.13.38,3.13-.38c-.58-.6.26-5.78-.85-6.85Z"/>
                <rect class="cls-1" x="988.02" y="473.55" width=".54" height="4.15"/>
                <path class="cls-1" d="M989.02,475.24c0,.42-.33.75-.73.75s-.73-.33-.73-.75.33-.75.73-.75.73.34.73.75Z"/>
              </g>
            </g>
            <g>
              <rect class="cls-1" x="1216.28" y="488.12" width="36.69" height="114.41"/>
              <rect class="cls-1" x="1215.24" y="486.68" width="38.76" height="2.12"/>
              <rect class="cls-1" x="1217.89" y="484.99" width="33.47" height="2.12"/>
              <path class="cls-1" d="M1234.63,469.56c0,7.13,15.79,3.75,15.79,15.86l-15.79,4.22-15.79-4.22c0-12.11,15.79-8.73,15.79-15.86Z"/>
              <rect class="cls-1" x="1233.43" y="465.83" width="2.4" height="7.72"/>
              <polygon class="cls-1" points="1235.88 465.83 1237.12 464.27 1234.68 461.76 1232.12 464.27 1233.49 465.83 1234.48 467.27 1235.88 465.83"/>
              <rect class="cls-1" x="1234.07" y="457.44" width="1.12" height="5.85"/>
            </g>
            <g>
              <rect class="cls-1" x="1154.19" y="488.12" width="36.69" height="114.41"/>
              <rect class="cls-1" x="1155.76" y="486.01" width="33.55" height="3.22"/>
              <g>
                <path class="cls-1" d="M1183.9,479.13c1.23-1.16,1.8-1.57,1.8-2.72h.95c0,1.15.58,1.56,1.8,2.72,1.11,1.06.27,6.25.85,6.85l-3.13.38-3.13-.38c.58-.6-.26-5.78.85-6.85Z"/>
                <rect class="cls-1" x="1185.92" y="473.55" width=".53" height="4.15"/>
                <path class="cls-1" d="M1185.45,475.24c0,.42.33.75.73.75s.73-.33.73-.75-.33-.75-.73-.75-.73.34-.73.75Z"/>
                <path class="cls-1" d="M1156.61,479.13c1.22-1.16,1.81-1.57,1.81-2.72h.95c0,1.15.58,1.56,1.81,2.72,1.11,1.06.27,6.25.85,6.85l-3.13.38-3.13-.38c.58-.6-.26-5.78.85-6.85Z"/>
                <rect class="cls-1" x="1158.63" y="473.55" width=".53" height="4.15"/>
                <path class="cls-1" d="M1158.16,475.24c0,.42.33.75.73.75s.73-.33.73-.75-.32-.75-.73-.75-.73.34-.73.75Z"/>
              </g>
            </g>
          </g>
        </g>
        <path class="cls-1" d="M1382.23,427.74h-27.93v-34.52h2.18v-5.29h-3.57c-1.43-21.9-12.29-30.91-20.72-34.63v-4.63h-2.13v-16.17h-1.65c-.1-1.7-.86-5.77-5.59-7.68v-16.02h2.85v-1.53h-2.85v-3.05h-1.49v3.05h-2.85v1.53h2.85v16.02c-4.73,1.91-5.49,5.99-5.59,7.68h-1.65v16.17h-2.13v4.63c-8.43,3.71-19.3,12.73-20.73,34.63h-3.57v5.29h2.18v34.52h-27.93v9.22h2.91v181.97h114.52v-181.97h2.91v-9.22Z"/>
        <path class="cls-1" d="M729.76,314.17c0-3.01-20.06.6-21.35-1.81-1.29-2.4-10.44,2.77-10.44-7.22s-5.75-8.66-5.75-8.66c0,0-5.74-1.32-5.74,8.66s-9.15,4.81-10.44,7.22c-1.29,2.41-21.34-1.2-21.34,1.81s7.62,2.28,7.62,2.28c0,0-.11,7.1,3.99,7.1h18.06s-1.68,36.77-.42,50.24h-2.5l-.94,3.21-12.2.33-10.32,225.2h68.5l-10.32-225.2-12.2-.33-.94-3.21h-2.5c1.25-13.47-.43-50.24-.43-50.24h18.06c4.1,0,3.99-7.1,3.99-7.1,0,0,7.63.72,7.63-2.28ZM705.88,422.08l3.07,146.1h-31.77l3.42-146.1s1.37-22.42,12.22-22.42,13.06,22.42,13.06,22.42Z"/>
      </g>
    </g>
  </g>
</svg>